<?xml version="1.0" standalone="no"?>
<!DOCTYPE svg PUBLIC "-//W3C//DTD SVG 20010904//EN"
 "http://www.w3.org/TR/2001/REC-SVG-20010904/DTD/svg10.dtd">
<svg version="1.0" xmlns="http://www.w3.org/2000/svg"
 width="2156.000000pt" height="2156.000000pt" viewBox="0 0 2156.000000 2156.000000"
 preserveAspectRatio="xMidYMid meet">
<metadata>
Created by potrace 1.11, written by Peter Selinger 2001-2013
</metadata>
<g transform="translate(0.000000,2156.000000) scale(0.100000,-0.100000)"
fill="#000000" stroke="none">
<path d="M10285 21549 c-2928 -139 -5655 -1474 -7576 -3709 -1464 -1705 -2356
-3815 -2563 -6065 -33 -352 -40 -542 -40 -995 0 -558 16 -846 79 -1360 320
-2610 1608 -5040 3595 -6781 1608 -1409 3582 -2296 5695 -2558 464 -58 766
-75 1305 -75 462 0 604 5 980 40 3182 289 6079 2022 7875 4709 1008 1508 1612
3216 1779 5030 33 352 40 542 40 995 0 543 -16 839 -74 1320 -333 2761 -1724
5293 -3880 7058 -1911 1565 -4299 2413 -6760 2400 -157 0 -361 -5 -455 -9z
m1305 -693 c1352 -109 2550 -440 3730 -1031 1223 -612 2318 -1482 3205 -2545
1260 -1512 2050 -3389 2245 -5335 37 -369 41 -468 47 -950 7 -615 -11 -976
-73 -1475 -323 -2602 -1661 -4976 -3727 -6614 -1487 -1178 -3276 -1907 -5147
-2095 -399 -41 -518 -46 -1030 -46 -512 0 -631 5 -1030 46 -1871 188 -3660
917 -5147 2095 -2066 1638 -3404 4012 -3727 6614 -62 499 -80 860 -73 1475 6
482 10 581 47 950 152 1520 666 3000 1495 4306 680 1071 1575 2017 2614 2764
1507 1083 3319 1732 5151 1845 96 6 198 12 225 14 137 10 1014 -3 1195 -18z"/>
<path d="M10675 20389 c-107 -15 -224 -45 -332 -85 -209 -78 -367 -168 -813
-464 -391 -260 -478 -314 -623 -389 -185 -94 -351 -149 -552 -183 -138 -23
-611 -16 -925 12 -346 32 -830 35 -977 7 -350 -67 -580 -202 -797 -471 -143
-177 -263 -380 -453 -766 -325 -663 -490 -901 -776 -1116 -171 -129 -383 -244
-892 -483 -392 -185 -628 -326 -797 -478 -248 -222 -365 -452 -415 -817 -21
-156 -20 -532 2 -826 23 -311 30 -680 16 -830 -39 -420 -141 -647 -581 -1290
-372 -544 -498 -791 -556 -1086 -24 -120 -24 -328 0 -448 58 -295 184 -542
556 -1086 440 -643 542 -871 581 -1290 14 -151 7 -511 -16 -830 -23 -304 -23
-668 -2 -826 82 -602 352 -890 1212 -1295 510 -240 721 -354 894 -484 283
-214 450 -453 774 -1115 190 -386 310 -589 453 -766 219 -271 455 -409 804
-472 152 -27 628 -23 970 8 314 28 787 34 925 12 201 -34 367 -89 552 -183
145 -75 232 -129 623 -389 456 -303 633 -402 853 -479 290 -101 584 -101 874
0 220 77 397 176 853 479 391 260 478 314 623 389 185 94 351 149 552 183 138
23 611 16 925 -12 346 -32 830 -35 977 -7 350 67 580 202 797 471 143 177 263
380 453 766 324 662 491 901 774 1115 173 130 384 244 894 484 392 185 628
326 797 478 248 222 365 452 415 817 21 156 20 530 -2 826 -23 311 -30 680
-16 830 39 420 141 647 581 1290 306 447 427 662 503 891 53 158 71 263 71
419 0 156 -18 261 -70 419 -76 227 -198 444 -504 891 -440 643 -542 871 -581
1290 -14 151 -7 511 16 830 23 304 23 668 2 826 -82 602 -352 890 -1212 1295
-510 240 -721 354 -894 484 -283 214 -450 453 -774 1115 -190 386 -310 589
-453 766 -217 269 -447 404 -797 471 -147 28 -631 25 -977 -7 -314 -28 -787
-35 -925 -12 -201 34 -367 89 -552 183 -145 75 -232 129 -623 389 -456 303
-633 402 -853 479 -182 64 -421 92 -582 70z m740 -1599 c1938 -125 3725 -919
5094 -2265 1396 -1372 2211 -3144 2341 -5093 13 -198 13 -786 0 -984 -152
-2274 -1247 -4320 -3065 -5724 -1243 -961 -2767 -1531 -4370 -1634 -206 -13
-784 -13 -990 0 -1938 125 -3725 919 -5094 2265 -1396 1372 -2211 3144 -2341
5093 -13 198 -13 786 0 984 152 2274 1247 4320 3065 5724 1234 954 2763 1529
4345 1633 184 12 831 13 1015 1z"/>
<path d="M10607 18185 c-82 -7 -150 -15 -152 -17 -3 -2 -27 -129 -55 -283 -27
-153 -51 -280 -53 -281 -2 -2 -45 118 -97 267 -52 149 -96 272 -99 274 -6 3
-384 -25 -388 -29 -2 -1 13 -200 32 -442 19 -241 35 -452 35 -468 l0 -29 122
7 c68 4 124 8 125 10 1 1 -9 141 -23 311 -14 171 -24 323 -22 338 2 20 41 -81
117 -303 l114 -331 106 7 c58 3 109 9 113 13 4 3 34 161 68 351 34 190 63 346
65 348 4 4 12 -90 36 -398 12 -157 23 -286 24 -288 2 -3 238 17 241 21 1 1
-15 211 -35 467 l-36 465 -45 1 c-25 1 -112 -4 -193 -11z"/>
<path d="M11150 18163 c0 -15 -18 -226 -40 -468 -21 -242 -36 -443 -32 -446 4
-3 184 -21 400 -39 314 -27 395 -31 401 -21 8 13 25 191 18 197 -1 2 -117 13
-256 25 l-252 23 6 85 c4 47 10 89 14 92 3 4 98 -1 211 -12 113 -10 215 -18
226 -19 20 0 22 7 29 91 4 49 5 93 2 95 -4 5 -400 43 -444 44 -9 0 -10 20 -6
73 3 39 7 73 8 75 1 1 111 -7 245 -19 187 -17 244 -19 250 -9 7 11 23 180 18
186 -2 1 -163 16 -358 33 -195 17 -374 33 -397 37 -42 5 -43 4 -43 -23z"/>
<path d="M12235 18058 c-10 -30 -225 -901 -223 -903 13 -10 263 -64 268 -58 4
4 34 115 66 245 32 131 61 234 65 230 4 -4 54 -132 112 -286 58 -153 108 -281
111 -283 5 -5 270 -73 272 -70 12 18 224 911 218 916 -11 10 -257 71 -262 66
-2 -2 -32 -115 -66 -251 l-62 -247 -73 194 c-41 107 -91 240 -113 295 l-39
102 -124 31 c-141 35 -144 36 -150 19z"/>
<path d="M9080 17962 c-206 -52 -377 -97 -380 -99 -8 -7 222 -913 231 -913 15
0 773 191 778 196 7 7 -42 204 -51 204 -5 0 -117 -27 -250 -60 -132 -34 -242
-59 -243 -58 -6 5 -46 170 -43 173 2 2 101 28 221 58 120 30 220 57 222 59 2
2 -6 44 -19 93 -19 76 -26 90 -42 88 -10 -1 -110 -25 -222 -54 -157 -41 -205
-50 -211 -40 -11 18 -34 122 -28 127 3 3 110 32 238 65 128 33 234 61 236 62
2 3 -7 41 -38 160 -5 20 -13 37 -17 36 -4 0 -176 -44 -382 -97z"/>
<path d="M13321 17665 c-24 -58 -42 -107 -40 -109 2 -3 62 -29 133 -60 71 -31
131 -58 134 -60 2 -3 -57 -150 -133 -326 -76 -177 -133 -325 -129 -329 11 -10
249 -111 261 -111 4 0 70 146 146 324 l138 325 67 -29 c37 -16 98 -42 137 -58
38 -17 73 -29 76 -26 6 3 89 197 89 207 0 5 -821 357 -830 357 -3 0 -25 -47
-49 -105z"/>
<path d="M7890 17555 c-82 -34 -124 -57 -122 -66 7 -35 348 -859 355 -859 7 0
515 205 650 262 26 11 47 26 47 32 0 27 -80 201 -92 200 -7 -1 -104 -38 -216
-84 -111 -45 -204 -81 -206 -79 -1 2 -62 148 -134 324 -73 179 -136 321 -144
322 -7 1 -69 -22 -138 -52z"/>
<path d="M7167 17181 c-185 -109 -339 -200 -342 -203 -4 -4 445 -782 471 -816
2 -3 683 394 696 407 10 9 -90 181 -105 181 -6 0 -107 -57 -225 -126 -117 -69
-215 -124 -216 -122 -2 2 -22 36 -46 77 -51 88 -71 63 167 202 95 56 176 105
178 110 7 10 -85 170 -94 165 -3 -2 -88 -51 -187 -109 -100 -59 -188 -109
-196 -112 -11 -4 -25 10 -47 49 -17 31 -31 60 -31 65 0 5 89 61 198 125 108
64 203 120 210 125 11 6 4 26 -34 90 -26 45 -50 84 -53 86 -4 2 -159 -85 -344
-194z"/>
<path d="M14157 16899 l-399 -311 132 -79 132 -79 60 54 61 54 141 -85 c77
-47 142 -86 144 -88 2 -1 -6 -38 -17 -81 -11 -43 -19 -79 -18 -79 1 -1 60 -36
130 -79 71 -43 131 -75 135 -72 8 8 181 979 176 987 -4 7 -269 169 -275 169
-2 -1 -183 -141 -402 -311z m368 -161 c-21 -84 -39 -155 -41 -157 -4 -4 -162
88 -169 98 -5 9 235 224 242 217 3 -2 -12 -73 -32 -158z"/>
<path d="M10608 16833 c12 -2 32 -2 45 0 12 2 2 4 -23 4 -25 0 -35 -2 -22 -4z"/>
<path d="M11098 16833 c12 -2 32 -2 45 0 12 2 2 4 -23 4 -25 0 -35 -2 -22 -4z"/>
<path d="M10433 16823 c9 -2 23 -2 30 0 6 3 -1 5 -18 5 -16 0 -22 -2 -12 -5z"/>
<path d="M11293 16823 c9 -2 23 -2 30 0 6 3 -1 5 -18 5 -16 0 -22 -2 -12 -5z"/>
<path d="M10308 16813 c6 -2 18 -2 25 0 6 3 1 5 -13 5 -14 0 -19 -2 -12 -5z"/>
<path d="M11418 16813 c6 -2 18 -2 25 0 6 3 1 5 -13 5 -14 0 -19 -2 -12 -5z"/>
<path d="M10218 16803 c7 -3 16 -2 19 1 4 3 -2 6 -13 5 -11 0 -14 -3 -6 -6z"/>
<path d="M11518 16803 c6 -2 18 -2 25 0 6 3 1 5 -13 5 -14 0 -19 -2 -12 -5z"/>
<path d="M10128 16793 c7 -3 16 -2 19 1 4 3 -2 6 -13 5 -11 0 -14 -3 -6 -6z"/>
<path d="M11608 16793 c7 -3 16 -2 19 1 4 3 -2 6 -13 5 -11 0 -14 -3 -6 -6z"/>
<path d="M10048 16783 c7 -3 16 -2 19 1 4 3 -2 6 -13 5 -11 0 -14 -3 -6 -6z"/>
<path d="M11688 16783 c7 -3 16 -2 19 1 4 3 -2 6 -13 5 -11 0 -14 -3 -6 -6z"/>
<path d="M9978 16773 c7 -3 16 -2 19 1 4 3 -2 6 -13 5 -11 0 -14 -3 -6 -6z"/>
<path d="M11758 16773 c7 -3 16 -2 19 1 4 3 -2 6 -13 5 -11 0 -14 -3 -6 -6z"/>
<path d="M9918 16763 c7 -3 16 -2 19 1 4 3 -2 6 -13 5 -11 0 -14 -3 -6 -6z"/>
<path d="M9858 16753 c7 -3 16 -2 19 1 4 3 -2 6 -13 5 -11 0 -14 -3 -6 -6z"/>
<path d="M9798 16743 c7 -3 16 -2 19 1 4 3 -2 6 -13 5 -11 0 -14 -3 -6 -6z"/>
<path d="M9600 16710 l-25 -8 25 0 c14 0 34 3 45 8 l20 9 -20 -1 c-11 0 -31
-4 -45 -8z"/>
<path d="M15015 16365 c-165 -195 -300 -358 -300 -363 0 -11 211 -192 222
-191 4 0 60 63 123 139 63 76 120 139 127 139 15 1 52 -45 59 -75 3 -12 -11
-102 -30 -200 -20 -99 -36 -188 -36 -199 1 -13 43 -55 121 -120 66 -55 123
-101 127 -103 4 -1 23 69 42 155 38 177 43 270 17 321 l-18 32 43 -17 c61 -25
162 -23 214 4 126 66 186 215 134 330 -10 24 -40 66 -67 94 -42 45 -454 400
-471 406 -4 2 -142 -157 -307 -352z m530 -92 c51 -51 59 -93 25 -136 -43 -54
-93 -43 -202 43 l-67 53 61 74 60 73 39 -31 c22 -17 60 -51 84 -76z"/>
<path d="M12175 16695 c22 -8 49 -13 60 -13 11 0 2 6 -20 13 -22 8 -49 13 -60
13 -11 0 -2 -6 20 -13z"/>
<path d="M12365 16650 c11 -5 27 -9 35 -9 13 -1 13 0 0 9 -8 5 -24 9 -35 9
l-20 0 20 -9z"/>
<path d="M6047 16354 c-89 -32 -269 -189 -332 -288 -123 -196 -90 -410 91
-592 99 -100 195 -146 315 -152 106 -5 171 12 259 69 170 110 286 267 340 460
l19 70 -135 142 c-75 78 -140 142 -145 142 -5 0 -83 -70 -174 -155 l-165 -155
67 -67 c37 -38 72 -68 77 -68 6 0 40 30 77 66 l66 66 28 -36 27 -35 -17 -50
c-19 -60 -91 -144 -146 -171 -89 -46 -189 -12 -293 102 -75 80 -112 159 -101
218 21 116 142 204 235 172 l31 -11 85 115 c47 63 82 119 79 124 -3 5 -30 18
-61 29 -64 25 -169 27 -227 5z"/>
<path d="M8291 16264 c-19 -8 -32 -17 -28 -20 3 -3 22 4 44 15 44 23 34 27
-16 5z"/>
<path d="M13664 16151 c3 -5 16 -11 28 -14 22 -6 22 -5 4 8 -22 17 -40 20 -32
6z"/>
<path d="M8044 16134 c-18 -14 -18 -15 4 -4 12 6 22 13 22 15 0 8 -5 6 -26
-11z"/>
<path d="M13740 16116 c0 -3 9 -10 20 -16 11 -6 20 -8 20 -6 0 3 -9 10 -20 16
-11 6 -20 8 -20 6z"/>
<path d="M16076 16059 c-3 -8 -41 -153 -85 -324 -59 -228 -86 -313 -100 -325
-10 -8 -78 -66 -149 -129 l-131 -114 90 -103 c49 -56 95 -107 102 -112 9 -7
55 28 159 119 l147 129 298 35 c164 19 313 37 331 40 l33 6 -68 77 c-37 43
-86 99 -109 124 l-40 46 -178 -30 c-97 -17 -179 -28 -181 -26 -3 3 20 83 50
178 l54 173 -101 116 c-56 64 -105 120 -109 125 -5 5 -10 3 -13 -5z"/>
<path d="M7814 16004 c-18 -14 -18 -15 4 -4 12 6 22 13 22 15 0 8 -5 6 -26
-11z"/>
<path d="M7764 15974 c-18 -14 -18 -15 4 -4 12 6 22 13 22 15 0 8 -5 6 -26
-11z"/>
<path d="M14030 15946 c0 -3 9 -10 20 -16 11 -6 20 -8 20 -6 0 3 -9 10 -20 16
-11 6 -20 8 -20 6z"/>
<path d="M14140 15877 c0 -2 26 -21 58 -41 31 -20 45 -27 30 -14 -30 26 -88
62 -88 55z"/>
<path d="M7557 15845 c-20 -14 -37 -28 -37 -31 0 -2 18 8 40 22 35 23 47 34
37 34 -1 0 -19 -11 -40 -25z"/>
<path d="M7381 15725 c-34 -25 -61 -47 -61 -51 0 -7 14 2 78 48 46 35 60 48
48 48 -2 0 -31 -20 -65 -45z"/>
<path d="M14320 15756 c0 -2 14 -14 30 -26 17 -12 30 -19 30 -16 0 2 -13 14
-30 26 -16 12 -30 19 -30 16z"/>
<path d="M14390 15706 c0 -2 8 -10 18 -17 15 -13 16 -12 3 4 -13 16 -21 21
-21 13z"/>
<path d="M14430 15676 c0 -2 14 -14 30 -26 17 -12 30 -19 30 -16 0 2 -13 14
-30 26 -16 12 -30 19 -30 16z"/>
<path d="M7289 15653 c-13 -16 -12 -17 4 -4 9 7 17 15 17 17 0 8 -8 3 -21 -13z"/>
<path d="M7225 15604 l-40 -36 43 32 c36 27 49 40 40 40 -2 0 -21 -16 -43 -36z"/>
<path d="M5191 15499 c-45 -61 -79 -114 -74 -118 4 -4 95 -72 201 -150 105
-79 192 -145 192 -148 0 -6 -577 6 -601 13 -10 3 -40 -30 -92 -101 -43 -58
-80 -111 -82 -118 -2 -7 154 -129 367 -287 204 -151 375 -276 379 -278 7 -3
159 196 167 217 2 5 -84 73 -190 151 -106 78 -197 147 -203 152 -10 10 485 3
571 -8 l41 -5 83 112 c60 79 81 115 74 124 -9 14 -735 555 -744 555 -3 0 -43
-50 -89 -111z"/>
<path d="M14550 15586 c0 -2 8 -10 18 -17 15 -13 16 -12 3 4 -13 16 -21 21
-21 13z"/>
<path d="M7154 15548 l-19 -23 23 19 c21 18 27 26 19 26 -2 0 -12 -10 -23 -22z"/>
<path d="M14590 15557 c0 -3 23 -24 50 -47 28 -23 50 -40 50 -37 0 3 -22 24
-50 47 -27 23 -50 40 -50 37z"/>
<path d="M7104 15508 l-19 -23 23 19 c12 11 22 21 22 23 0 8 -8 2 -26 -19z"/>
<path d="M7025 15444 c-45 -41 -45 -42 -9 -15 38 28 72 61 62 61 -2 0 -26 -21
-53 -46z"/>
<path d="M14700 15467 c0 -2 30 -31 67 -63 37 -33 64 -54 60 -48 -9 15 -127
118 -127 111z"/>
<path d="M6848 15289 l-83 -81 70 60 c72 62 113 102 102 102 -3 0 -43 -37 -89
-81z"/>
<path d="M14890 15299 c30 -31 123 -120 205 -199 l150 -144 -125 127 c-69 71
-161 160 -205 199 -61 55 -67 59 -25 17z"/>
<path d="M11730 14966 c0 -10 -15 -12 -70 -8 -62 4 -70 3 -70 -13 0 -16 -7
-17 -60 -11 -50 6 -60 5 -60 -9 0 -11 -11 -15 -45 -15 -25 0 -45 -4 -45 -10 0
-5 -22 -10 -50 -10 -27 0 -50 -4 -50 -10 0 -5 -16 -10 -35 -10 -19 0 -35 -4
-35 -10 0 -5 -20 -10 -45 -10 -25 0 -45 -4 -45 -10 0 -5 -16 -10 -35 -10 -26
0 -35 -4 -35 -16 0 -13 -8 -15 -35 -12 -24 3 -35 0 -35 -9 0 -8 -13 -13 -35
-13 -19 0 -35 -4 -35 -10 0 -5 -11 -10 -25 -10 -14 0 -25 -4 -25 -10 0 -5 -16
-10 -35 -10 -19 0 -35 -4 -35 -10 0 -5 -11 -10 -25 -10 -16 0 -25 -6 -25 -15
0 -8 -9 -15 -20 -15 -11 0 -20 -4 -20 -10 0 -5 -11 -10 -25 -10 -14 0 -25 -4
-25 -10 0 -5 -11 -10 -25 -10 -14 0 -25 -4 -25 -10 0 -5 -9 -10 -20 -10 -11 0
-20 -7 -20 -15 0 -8 -7 -15 -15 -15 -8 0 -15 -4 -15 -10 0 -5 -11 -10 -25 -10
-14 0 -25 -4 -25 -10 0 -5 -9 -10 -20 -10 -11 0 -20 -6 -20 -14 0 -9 -8 -12
-25 -8 -15 2 -25 0 -25 -8 0 -17 -26 -40 -45 -40 -19 0 -45 -23 -45 -39 0 -6
-11 -11 -25 -11 -14 0 -25 -4 -25 -10 0 -5 -6 -10 -13 -10 -7 0 -19 -9 -27
-20 -8 -11 -25 -20 -37 -20 -13 0 -23 -5 -23 -10 0 -14 -46 -60 -60 -60 -5 0
-10 -5 -10 -11 0 -17 -27 -39 -47 -39 -10 0 -25 -9 -33 -20 -8 -11 -20 -20
-27 -20 -7 0 -13 -5 -13 -10 0 -14 -46 -60 -60 -60 -5 0 -10 -5 -10 -10 0 -12
-45 -60 -55 -60 -10 0 -35 -28 -35 -39 0 -6 -7 -11 -15 -11 -8 0 -15 -9 -15
-20 0 -11 -4 -20 -10 -20 -5 0 -10 -5 -10 -11 0 -14 -25 -39 -39 -39 -6 0 -11
-9 -11 -21 0 -22 -22 -49 -39 -49 -6 0 -11 -10 -11 -23 0 -12 -9 -29 -20 -37
-11 -8 -20 -25 -20 -38 0 -17 -4 -23 -15 -18 -11 4 -15 -1 -15 -19 0 -14 -4
-25 -10 -25 -5 0 -10 -11 -10 -25 0 -16 -6 -25 -15 -25 -8 0 -15 -9 -15 -20 0
-11 -4 -20 -10 -20 -5 0 -10 -11 -10 -24 0 -13 -7 -26 -15 -30 -8 -3 -15 -15
-15 -26 0 -11 -4 -20 -10 -20 -5 0 -10 -16 -10 -35 0 -19 -4 -35 -10 -35 -5 0
-10 -9 -10 -20 0 -11 -7 -20 -15 -20 -10 0 -15 -11 -15 -35 0 -19 -4 -35 -10
-35 -5 0 -10 -22 -10 -50 0 -38 -4 -50 -15 -50 -10 0 -15 -11 -15 -35 0 -19
-4 -35 -10 -35 -5 0 -10 -20 -10 -45 0 -33 -4 -45 -15 -45 -12 0 -15 -14 -15
-69 0 -43 -4 -71 -11 -73 -8 -3 -13 -49 -17 -128 -2 -69 -8 -127 -12 -130 -4
-3 -11 -67 -15 -142 -6 -115 -5 -138 7 -138 11 0 13 -15 10 -70 -4 -59 -2 -70
12 -70 14 0 16 15 16 105 0 63 4 105 10 105 6 0 10 -16 10 -35 0 -24 5 -35 14
-35 11 0 13 -9 9 -35 -4 -28 -2 -35 11 -35 13 0 16 11 16 59 0 38 -5 61 -12
65 -10 5 -10 7 0 12 8 4 12 36 12 110 0 86 3 104 15 104 11 0 15 12 15 45 0
25 5 45 10 45 6 0 10 16 10 35 0 24 5 35 15 35 10 0 15 11 15 35 0 19 5 35 10
35 6 0 10 16 10 35 0 24 5 35 15 35 9 0 15 9 15 25 0 14 5 25 10 25 6 0 10 11
10 25 0 16 6 25 15 25 8 0 15 9 15 20 0 11 5 20 10 20 6 0 10 7 10 15 0 8 5
15 10 15 6 0 10 9 10 20 0 11 7 20 15 20 9 0 15 9 15 21 0 22 22 49 39 49 6 0
11 9 11 21 0 25 31 60 38 41 2 -6 10 -12 18 -12 8 0 14 -7 14 -15 0 -8 5 -15
10 -15 6 0 10 11 10 25 0 14 5 25 10 25 6 0 10 -11 10 -25 0 -16 6 -25 15 -25
8 0 15 6 15 14 0 10 11 12 45 8 37 -4 45 -2 45 12 0 9 5 16 10 16 6 0 10 -7
10 -15 0 -8 -4 -15 -10 -15 -5 0 -10 -16 -10 -35 0 -19 5 -35 10 -35 6 0 10
11 10 25 0 16 6 25 15 25 10 0 15 11 15 35 0 19 5 35 10 35 6 0 10 11 10 25 0
16 6 25 15 25 8 0 15 9 15 20 0 11 5 20 10 20 6 0 10 11 10 25 0 14 5 25 10
25 6 0 10 -30 10 -70 0 -40 4 -70 10 -70 6 0 10 -11 10 -25 0 -26 25 -35 33
-12 3 8 10 6 23 -9 24 -26 64 -38 64 -18 0 8 5 14 10 14 6 0 10 -7 10 -15 0
-8 7 -15 15 -15 8 0 15 7 15 15 0 8 5 15 10 15 6 0 10 -16 10 -35 0 -19 5 -35
10 -35 6 0 10 -11 10 -25 0 -14 5 -25 10 -25 6 0 10 -11 10 -25 0 -16 6 -25
15 -25 9 0 15 -9 15 -25 0 -14 5 -25 10 -25 6 0 10 -9 10 -20 0 -11 5 -20 10
-20 6 0 10 -7 10 -15 0 -8 4 -15 9 -15 6 0 13 32 17 70 3 39 11 70 15 70 5 0
9 14 9 31 0 17 7 37 15 45 8 9 15 26 15 40 0 25 14 32 24 12 5 -10 7 -10 12 0
10 22 34 13 34 -13 0 -14 5 -25 10 -25 6 0 10 16 10 35 0 19 5 35 10 35 6 0
10 16 10 35 0 24 5 35 15 35 9 0 15 9 15 25 0 14 5 25 10 25 6 0 10 16 10 35
0 24 5 35 15 35 9 0 15 9 15 25 0 14 5 25 10 25 6 0 10 16 10 35 0 24 5 35 15
35 8 0 15 9 15 20 0 11 5 20 10 20 6 0 10 11 10 25 0 14 5 25 10 25 6 0 10 9
10 20 0 11 7 23 15 26 8 4 15 15 15 25 0 10 5 19 10 19 6 0 10 11 10 25 0 16
6 25 15 25 10 0 15 -11 15 -35 0 -24 -5 -35 -15 -35 -13 0 -15 -21 -15 -130 0
-80 4 -130 10 -130 6 0 10 -11 10 -25 0 -14 5 -25 10 -25 6 0 10 -9 10 -20 0
-11 6 -20 14 -20 9 0 12 -8 8 -25 -3 -18 0 -25 12 -25 9 0 16 -5 16 -10 0 -14
46 -60 60 -60 5 0 10 -5 10 -11 0 -6 14 -24 30 -39 17 -15 30 -33 30 -39 0 -6
5 -11 11 -11 14 0 39 -25 39 -39 0 -6 5 -11 10 -11 20 0 9 23 -25 54 -19 18
-32 36 -28 39 11 12 23 8 23 -8 0 -10 11 -15 35 -15 24 0 35 5 35 15 0 8 5 15
10 15 6 0 10 -6 10 -14 0 -8 6 -17 13 -19 9 -4 8 -8 -3 -16 -8 -5 -11 -14 -6
-18 5 -4 11 -2 13 5 6 15 33 16 33 2 0 -14 46 -60 60 -60 5 0 10 -5 10 -11 0
-6 14 -24 30 -39 17 -15 30 -33 30 -39 0 -6 7 -11 15 -11 8 0 15 -4 15 -10 0
-5 9 -10 20 -10 11 0 20 -7 20 -15 0 -8 5 -15 10 -15 14 0 60 -46 60 -60 0 -5
11 -10 25 -10 24 0 25 2 25 70 0 40 -4 70 -10 70 -6 0 -10 27 -10 60 0 33 -4
60 -10 60 -5 0 -10 11 -10 25 0 14 5 25 10 25 6 0 10 -7 10 -15 0 -8 5 -15 10
-15 6 0 10 7 10 15 0 8 7 15 15 15 8 0 15 -7 15 -15 0 -8 5 -15 10 -15 6 0 10
5 10 10 0 6 5 10 10 10 6 0 10 -9 10 -20 0 -11 7 -20 15 -20 10 0 15 -11 15
-35 0 -19 5 -35 10 -35 6 0 10 16 10 35 0 19 -4 35 -10 35 -5 0 -10 9 -10 20
0 11 4 20 8 20 4 0 14 -9 22 -20 8 -11 20 -20 27 -20 7 0 13 -5 13 -11 0 -16
30 -43 38 -34 4 4 1 10 -5 12 -7 3 -13 9 -13 15 0 13 -26 38 -39 38 -6 0 -11
5 -11 10 0 6 7 10 15 10 8 0 15 -4 15 -10 0 -5 16 -10 35 -10 24 0 35 -5 35
-15 0 -8 5 -15 10 -15 6 0 10 5 10 11 0 14 -25 39 -39 39 -6 0 -11 5 -11 10 0
17 25 11 40 -10 8 -11 25 -20 37 -20 13 0 23 -6 23 -13 0 -7 9 -19 20 -27 11
-8 20 -20 20 -27 0 -7 9 -13 20 -13 22 0 70 -41 70 -60 0 -5 5 -10 11 -10 11
0 39 -25 39 -35 0 -8 27 -35 35 -35 8 0 35 -27 35 -35 0 -10 48 -55 60 -55 5
0 10 -11 10 -25 0 -14 5 -25 10 -25 6 0 10 -7 10 -15 0 -8 5 -15 10 -15 6 0
10 -9 10 -20 0 -11 5 -20 10 -20 6 0 10 -7 10 -15 0 -8 7 -15 15 -15 8 0 15
-9 15 -20 0 -11 5 -20 10 -20 6 0 10 -11 10 -25 0 -14 5 -25 10 -25 6 0 10
-16 10 -35 0 -19 5 -35 10 -35 6 0 10 -16 10 -35 0 -26 4 -35 16 -35 14 0 16
-8 10 -60 -6 -50 -5 -60 9 -60 11 0 15 -11 15 -44 0 -31 5 -46 16 -50 9 -4 18
-5 19 -4 2 2 6 67 10 146 6 126 5 142 -9 142 -13 0 -15 8 -9 45 5 38 3 45 -11
45 -10 0 -16 9 -16 25 0 14 -4 25 -10 25 -5 0 -10 16 -10 35 0 19 -4 35 -10
35 -5 0 -10 9 -10 21 0 22 -22 49 -39 49 -6 0 -11 10 -11 23 0 12 -9 29 -20
37 -11 8 -20 23 -20 33 0 20 -22 47 -39 47 -6 0 -11 7 -11 15 0 8 -4 15 -10
15 -5 0 -10 9 -10 20 0 11 -4 20 -10 20 -5 0 -10 7 -10 15 0 8 -7 15 -16 15
-8 0 -12 5 -9 10 3 6 1 10 -5 10 -12 0 -40 24 -40 35 0 14 -30 35 -49 35 -16
0 -21 6 -21 25 0 19 -5 25 -21 25 -21 0 -49 21 -49 37 0 5 -9 15 -20 23 -11 8
-20 20 -20 27 0 7 -7 13 -15 13 -8 0 -15 5 -15 10 0 6 -9 10 -20 10 -11 0 -20
5 -20 10 0 6 -7 10 -15 10 -8 0 -15 5 -15 11 0 17 -27 39 -49 39 -14 0 -19 5
-15 15 4 9 0 15 -10 15 -9 0 -16 5 -16 10 0 6 -9 10 -20 10 -11 0 -20 5 -20
10 0 6 -7 10 -15 10 -8 0 -15 7 -15 15 0 8 -9 15 -20 15 -11 0 -20 5 -20 10 0
6 -7 10 -15 10 -8 0 -15 7 -15 15 0 8 -7 15 -16 15 -9 0 -24 8 -33 19 -9 10
-26 21 -38 25 -13 4 -23 12 -23 17 0 5 -9 9 -21 9 -22 0 -49 22 -49 39 0 6 -9
11 -21 11 -19 0 -49 21 -49 35 0 10 -48 55 -60 55 -5 0 -10 7 -10 15 0 8 -4
15 -10 15 -5 0 -10 9 -10 20 0 11 -4 20 -10 20 -5 0 -10 7 -10 15 0 8 -7 15
-16 15 -13 0 -15 7 -10 35 6 29 4 35 -10 35 -15 0 -16 11 -10 113 4 61 11 114
16 115 6 2 10 19 10 37 0 20 6 35 15 39 8 3 15 15 15 26 0 11 5 20 10 20 6 0
10 9 10 21 0 22 22 49 39 49 6 0 11 11 11 25 0 14 5 25 10 25 6 0 10 9 10 20
0 11 5 20 11 20 11 0 39 25 39 35 0 4 6 13 14 21 8 8 17 14 21 14 4 0 13 6 21
14 8 8 14 17 14 21 0 4 6 13 14 21 8 8 17 14 21 14 10 0 35 28 35 39 0 6 5 11
11 11 6 0 24 14 39 30 15 17 37 30 49 30 12 0 21 5 21 11 0 11 25 39 35 39 11
0 35 28 35 40 0 8 10 10 25 8 14 -3 25 -1 25 4 0 15 27 38 45 38 19 0 45 23
45 39 0 6 7 11 15 11 8 0 15 5 15 10 0 6 9 10 20 10 11 0 20 5 20 10 0 6 11
10 25 10 28 0 34 15 9 24 -9 3 -45 6 -80 6 -47 0 -64 -4 -64 -14z m-730 -1696
c0 -5 -7 -10 -15 -10 -8 0 -15 5 -15 10 0 6 7 10 15 10 8 0 15 -4 15 -10z"/>
<path d="M6489 14933 l-34 -38 38 34 c20 19 37 36 37 38 0 8 -8 0 -41 -34z"/>
<path d="M15320 14865 c13 -14 26 -25 28 -25 3 0 -5 11 -18 25 -13 14 -26 25
-28 25 -3 0 5 -11 18 -25z"/>
<path d="M6394 14828 l-19 -23 23 19 c21 18 27 26 19 26 -2 0 -12 -10 -23 -22z"/>
<path d="M15395 14780 c10 -11 20 -20 23 -20 3 0 -3 9 -13 20 -10 11 -20 20
-23 20 -3 0 3 -9 13 -20z"/>
<path d="M15440 14726 c0 -2 8 -10 18 -17 15 -13 16 -12 3 4 -13 16 -21 21
-21 13z"/>
<path d="M6269 14683 c-13 -16 -12 -17 4 -4 16 13 21 21 13 21 -2 0 -10 -8
-17 -17z"/>
<path d="M15490 14666 c0 -2 8 -10 18 -17 15 -13 16 -12 3 4 -13 16 -21 21
-21 13z"/>
<path d="M6229 14633 c-13 -16 -12 -17 4 -4 16 13 21 21 13 21 -2 0 -10 -8
-17 -17z"/>
<path d="M16935 14582 c-109 -52 -156 -159 -135 -311 6 -41 22 -122 36 -180
22 -90 24 -110 14 -144 -13 -43 -53 -68 -96 -59 -60 11 -123 118 -110 187 4
20 23 53 42 74 19 21 34 42 34 47 0 15 -135 227 -146 231 -17 6 -104 -87 -131
-141 -53 -105 -40 -216 48 -388 63 -122 138 -206 217 -245 48 -24 69 -28 137
-28 67 0 88 5 131 27 56 30 109 84 130 134 26 62 18 198 -21 350 -40 157 -42
175 -17 197 38 35 89 12 122 -53 31 -61 22 -131 -24 -169 -12 -10 -5 -29 57
-132 40 -65 75 -119 78 -119 16 0 93 86 110 123 21 48 25 158 8 222 -18 64
-87 198 -135 259 -24 31 -70 73 -101 93 -51 34 -63 38 -132 41 -58 2 -85 -2
-116 -16z"/>
<path d="M4613 14461 c-115 -42 -207 -133 -278 -276 -55 -112 -68 -173 -63
-289 4 -75 9 -101 32 -146 42 -81 88 -133 164 -183 264 -175 529 -142 684 85
202 298 161 577 -107 736 -150 88 -313 115 -432 73z m233 -311 c149 -69 209
-150 185 -247 -16 -64 -52 -114 -102 -142 -33 -19 -52 -22 -98 -19 -109 8
-275 108 -308 185 -53 127 67 286 202 267 22 -3 77 -23 121 -44z"/>
<path d="M5962 14278 c-40 -60 -47 -72 -35 -65 10 7 75 107 68 107 -2 0 -17
-19 -33 -42z"/>
<path d="M15930 14052 c0 -5 7 -15 15 -22 8 -7 15 -8 15 -2 0 5 -7 15 -15 22
-8 7 -15 8 -15 2z"/>
<path d="M8114 13784 c-18 -14 -18 -15 4 -4 12 6 22 13 22 15 0 8 -5 6 -26
-11z"/>
<path d="M16120 13730 c6 -11 13 -20 16 -20 2 0 0 9 -6 20 -6 11 -13 20 -16
20 -2 0 0 -9 6 -20z"/>
<path d="M7985 13730 c-3 -5 -2 -10 4 -10 5 0 13 5 16 10 3 6 2 10 -4 10 -5 0
-13 -4 -16 -10z"/>
<path d="M13821 13657 c3 -76 89 -447 113 -485 3 -5 8 -22 10 -38 8 -40 45
-129 79 -186 15 -26 27 -49 27 -52 0 -17 106 -148 158 -197 33 -31 63 -63 68
-71 5 -7 32 -28 59 -45 93 -58 206 -98 330 -118 50 -8 101 -17 113 -21 21 -6
23 -4 20 17 -2 17 -12 26 -38 32 -108 28 -231 71 -251 88 -12 10 -27 19 -33
19 -13 0 -74 41 -135 90 -85 68 -253 317 -265 392 -1 7 -14 45 -28 83 -56 149
-121 404 -113 438 7 28 -13 47 -73 70 l-42 17 1 -33z"/>
<path d="M5595 13669 c-4 -6 -5 -12 -2 -15 2 -3 7 2 10 11 7 17 1 20 -8 4z"/>
<path d="M17275 13615 c-185 -40 -320 -138 -388 -283 -29 -60 -32 -76 -31
-157 0 -61 7 -115 22 -168 65 -230 188 -345 378 -355 l84 -5 0 84 c0 46 -3
108 -6 137 l-7 52 -41 0 c-119 0 -196 74 -199 190 -1 58 25 103 81 140 44 29
165 73 233 85 79 14 166 -34 200 -110 33 -71 22 -135 -32 -191 l-30 -31 67
-111 c37 -62 71 -112 77 -112 21 0 110 104 135 158 52 114 38 274 -38 431
-102 210 -278 296 -505 246z"/>
<path d="M7620 13549 c0 -5 5 -7 10 -4 6 3 10 8 10 11 0 2 -4 4 -10 4 -5 0
-10 -5 -10 -11z"/>
<path d="M5482 13445 c-30 -62 -27 -71 4 -12 14 27 24 51 22 53 -3 2 -14 -17
-26 -41z"/>
<path d="M4155 13441 c-81 -20 -130 -66 -174 -161 -29 -63 -197 -598 -189
-605 6 -6 900 -276 903 -273 6 8 84 282 81 285 -2 2 -80 27 -172 55 -93 28
-173 54 -178 59 -15 14 20 76 51 92 15 8 109 32 208 53 99 20 181 39 183 40 6
4 101 318 98 321 -1 2 -79 -12 -172 -31 -180 -35 -250 -61 -288 -106 l-23 -28
-6 63 c-8 102 -64 180 -158 219 -44 18 -126 27 -164 17z m107 -332 c28 -28 30
-34 25 -81 -4 -28 -16 -79 -27 -113 l-21 -62 -82 24 c-45 14 -85 28 -89 32
-11 10 49 181 73 207 33 35 82 32 121 -7z"/>
<path d="M16280 13415 c0 -5 5 -17 10 -25 5 -8 10 -10 10 -5 0 6 -5 17 -10 25
-5 8 -10 11 -10 5z"/>
<path d="M15148 13208 c-142 -272 -202 -470 -215 -703 -6 -117 13 -232 52
-320 14 -32 25 -63 25 -70 0 -34 212 -296 239 -295 9 1 33 21 55 47 18 22 18
23 -8 55 -14 18 -32 40 -39 48 -78 88 -153 231 -188 355 -32 115 -21 318 26
480 33 114 85 254 100 268 6 7 29 46 49 87 21 41 42 80 47 86 17 21 13 60 -9
91 -12 17 -22 36 -22 42 0 33 -26 -7 -112 -171z"/>
<path d="M10090 13275 c0 -14 5 -25 10 -25 6 0 10 -9 10 -20 0 -11 5 -20 10
-20 6 0 10 -7 10 -15 0 -8 5 -15 10 -15 6 0 10 7 10 15 0 8 -4 15 -10 15 -5 0
-10 9 -10 20 0 11 -4 20 -10 20 -5 0 -10 11 -10 25 0 14 -4 25 -10 25 -5 0
-10 -11 -10 -25z"/>
<path d="M9830 13270 c0 -5 5 -10 10 -10 6 0 10 5 10 10 0 6 -4 10 -10 10 -5
0 -10 -4 -10 -10z"/>
<path d="M10480 13210 c0 -22 5 -40 10 -40 6 0 10 18 10 40 0 22 -4 40 -10 40
-5 0 -10 -18 -10 -40z"/>
<path d="M9870 13185 c0 -16 6 -25 15 -25 9 0 15 9 15 25 0 16 -6 25 -15 25
-9 0 -15 -9 -15 -25z"/>
<path d="M11090 13152 c0 -4 9 -14 20 -22 11 -8 20 -20 20 -27 0 -7 7 -13 15
-13 22 0 19 9 -15 41 -31 30 -40 35 -40 21z"/>
<path d="M10460 13131 c0 -11 5 -23 10 -26 6 -4 10 5 10 19 0 14 -4 26 -10 26
-5 0 -10 -9 -10 -19z"/>
<path d="M9850 13130 c0 -5 5 -10 10 -10 6 0 10 5 10 10 0 6 -4 10 -10 10 -5
0 -10 -4 -10 -10z"/>
<path d="M10180 13124 c0 -10 31 -36 37 -31 3 3 -2 13 -10 22 -16 15 -27 19
-27 9z"/>
<path d="M11600 13060 c0 -11 5 -20 10 -20 6 0 10 9 10 20 0 11 -4 20 -10 20
-5 0 -10 -9 -10 -20z"/>
<path d="M11710 13070 c0 -5 7 -10 15 -10 8 0 15 -7 15 -15 0 -8 5 -15 10 -15
15 0 12 19 -4 36 -17 16 -36 19 -36 4z"/>
<path d="M7125 12929 c-4 -6 -5 -12 -2 -15 2 -3 7 2 10 11 7 17 1 20 -8 4z"/>
<path d="M7121 12874 c0 -11 3 -14 6 -6 3 7 2 16 -1 19 -3 4 -6 -2 -5 -13z"/>
<path d="M7112 12830 c0 -14 2 -19 5 -12 2 6 2 18 0 25 -3 6 -5 1 -5 -13z"/>
<path d="M5216 12775 c-3 -9 -6 -22 -5 -28 0 -7 5 -1 10 12 5 13 8 26 5 28 -2
2 -6 -3 -10 -12z"/>
<path d="M7595 12740 c-100 -63 -296 -120 -417 -120 -55 0 -56 1 -55 28 1 15
-1 45 -2 67 -4 36 -5 34 -10 -20 -11 -100 -9 -104 63 -104 134 1 299 53 429
136 62 41 78 54 60 52 -5 0 -35 -18 -68 -39z"/>
<path d="M5151 12554 c-7 -25 -10 -48 -8 -51 3 -2 10 17 16 43 7 25 10 48 8
51 -3 2 -10 -17 -16 -43z"/>
<path d="M17535 12516 c-363 -57 -450 -74 -453 -87 -3 -17 35 -269 42 -276 2
-3 86 8 185 23 99 15 183 26 185 23 10 -9 54 -304 48 -310 -4 -4 -89 -19 -190
-35 -173 -26 -183 -29 -178 -48 2 -12 12 -75 22 -141 9 -66 20 -123 24 -128 5
-6 917 130 928 139 9 6 -43 294 -52 294 -6 0 -78 -11 -161 -24 -82 -13 -151
-23 -153 -21 -2 1 -14 72 -28 156 -16 98 -21 155 -14 159 5 3 77 16 160 29
175 27 160 6 130 186 -11 66 -20 123 -20 128 0 9 36 14 -475 -67z"/>
<path d="M6361 12554 c0 -11 3 -14 6 -6 3 7 2 16 -1 19 -3 4 -6 -2 -5 -13z"/>
<path d="M13980 12542 c0 -7 74 -229 120 -362 50 -145 146 -328 219 -420 85
-107 187 -196 276 -240 47 -23 88 -40 91 -37 3 3 31 -8 63 -23 61 -31 169 -50
277 -50 63 0 64 0 64 28 0 28 -1 28 -97 40 -106 14 -189 37 -214 58 -8 8 -20
14 -25 14 -22 0 -196 122 -247 173 -102 103 -230 292 -242 355 -2 16 -22 67
-43 113 -21 46 -56 137 -77 201 -42 126 -40 124 -127 147 -21 5 -38 6 -38 3z"/>
<path d="M6360 12513 c0 -4 5 -15 10 -23 8 -13 10 -13 10 2 0 9 -4 20 -10 23
-5 3 -10 3 -10 -2z"/>
<path d="M6370 12464 c0 -29 58 -191 88 -244 20 -36 37 -67 37 -70 1 -13 67
-99 104 -134 l41 -40 27 24 c95 83 235 252 220 266 -3 4 -20 -15 -36 -41 -31
-49 -148 -164 -189 -186 -20 -11 -26 -9 -53 17 -75 71 -199 284 -214 368 -6
31 -25 61 -25 40z"/>
<path d="M4171 12221 c-307 -76 -476 -122 -481 -132 -8 -17 -45 -307 -39 -313
10 -10 882 -477 885 -474 7 8 42 293 35 299 -3 4 -35 19 -71 35 -36 15 -66 29
-68 30 -8 6 41 329 51 336 6 3 36 9 67 13 31 4 62 10 70 15 9 5 20 57 31 147
22 168 22 163 7 162 -7 -1 -226 -54 -487 -118z m86 -283 c-3 -13 -9 -56 -13
-96 -3 -40 -9 -74 -13 -76 -3 -2 -60 21 -126 51 -66 30 -136 61 -155 70 l-35
16 145 27 c80 16 158 28 174 29 24 1 27 -2 23 -21z"/>
<path d="M16662 12310 c0 -14 2 -19 5 -12 2 6 2 18 0 25 -3 6 -5 1 -5 -13z"/>
<path d="M12330 12260 c0 -5 5 -10 10 -10 6 0 10 5 10 10 0 6 -4 10 -10 10 -5
0 -10 -4 -10 -10z"/>
<path d="M5071 12234 c0 -11 3 -14 6 -6 3 7 2 16 -1 19 -3 4 -6 -2 -5 -13z"/>
<path d="M12330 12210 c0 -5 5 -10 10 -10 6 0 10 5 10 10 0 6 -4 10 -10 10 -5
0 -10 -4 -10 -10z"/>
<path d="M5061 12184 c0 -11 3 -14 6 -6 3 7 2 16 -1 19 -3 4 -6 -2 -5 -13z"/>
<path d="M15861 12156 c-8 -14 -31 -39 -52 -56 -61 -48 -248 -310 -309 -430
-13 -25 -31 -56 -41 -69 -27 -34 -85 -222 -99 -317 -19 -127 -8 -263 27 -359
32 -86 104 -223 141 -270 l22 -28 55 37 c30 20 55 39 55 42 0 3 -27 50 -60
105 -33 54 -60 103 -60 108 0 4 -9 28 -20 53 -23 53 -29 90 -37 231 -6 114 3
185 39 295 12 34 25 62 29 62 5 0 9 6 9 13 0 38 166 317 234 393 14 16 42 46
61 68 37 40 46 79 28 124 l-9 23 -13 -25z"/>
<path d="M5052 12140 c0 -14 2 -19 5 -12 2 6 2 18 0 25 -3 6 -5 1 -5 -13z"/>
<path d="M5042 12090 c0 -14 2 -19 5 -12 2 6 2 18 0 25 -3 6 -5 1 -5 -13z"/>
<path d="M5031 12034 c0 -11 3 -14 6 -6 3 7 2 16 -1 19 -3 4 -6 -2 -5 -13z"/>
<path d="M7621 11981 c-24 -33 -28 -56 -5 -26 20 26 36 55 30 55 -3 0 -14 -13
-25 -29z"/>
<path d="M5022 11980 c0 -14 2 -19 5 -12 2 6 2 18 0 25 -3 6 -5 1 -5 -13z"/>
<path d="M5012 11920 c0 -14 2 -19 5 -12 2 6 2 18 0 25 -3 6 -5 1 -5 -13z"/>
<path d="M7534 11879 c-95 -98 -248 -198 -324 -213 -14 -2 -59 -12 -100 -21
-41 -9 -133 -20 -205 -23 l-130 -7 -3 -29 -4 -29 119 6 c178 9 372 63 478 134
81 55 237 214 223 228 -2 3 -26 -18 -54 -46z"/>
<path d="M5002 11855 c0 -16 2 -22 5 -12 2 9 2 23 0 30 -3 6 -5 -1 -5 -18z"/>
<path d="M4992 11785 c0 -16 2 -22 5 -12 2 9 2 23 0 30 -3 6 -5 -1 -5 -18z"/>
<path d="M4982 11715 c0 -16 2 -22 5 -12 2 9 2 23 0 30 -3 6 -5 -1 -5 -18z"/>
<path d="M16771 11704 c0 -11 3 -14 6 -6 3 7 2 16 -1 19 -3 4 -6 -2 -5 -13z"/>
<path d="M4971 11624 c0 -11 3 -14 6 -6 3 7 2 16 -1 19 -3 4 -6 -2 -5 -13z"/>
<path d="M4962 11530 c0 -19 2 -27 5 -17 2 9 2 25 0 35 -3 9 -5 1 -5 -18z"/>
<path d="M12351 11501 c-12 -8 -9 -11 15 -16 73 -16 212 -60 244 -76 19 -10
53 -20 75 -23 35 -5 32 -3 -20 15 -33 12 -62 25 -65 28 -3 4 -24 13 -47 19
-24 7 -43 17 -43 22 0 18 -138 45 -159 31z"/>
<path d="M9313 11483 c9 -2 23 -2 30 0 6 3 -1 5 -18 5 -16 0 -22 -2 -12 -5z"/>
<path d="M9143 11468 c-57 -8 -71 -13 -66 -25 6 -16 14 -15 113 15 71 22 62
24 -47 10z"/>
<path d="M4953 11395 c0 -33 2 -45 4 -27 2 18 2 45 0 60 -2 15 -4 0 -4 -33z"/>
<path d="M14583 11213 c3 -188 8 -236 31 -348 15 -71 37 -155 48 -185 11 -30
21 -65 23 -78 10 -71 96 -190 251 -347 73 -74 149 -118 289 -170 39 -14 78
-30 87 -35 25 -14 26 -14 48 34 26 59 26 65 -10 77 -16 6 -30 15 -30 20 0 5
-6 9 -13 9 -20 0 -153 66 -210 104 -29 19 -70 52 -92 73 -49 46 -145 164 -145
179 0 5 -12 34 -26 64 -57 118 -123 359 -122 450 0 47 -22 281 -28 303 -3 9
-10 17 -15 17 -6 0 -25 11 -43 25 -18 14 -36 25 -40 25 -5 0 -6 -98 -3 -217z"/>
<path d="M5890 11395 c0 -35 28 -131 55 -186 14 -29 25 -59 25 -67 0 -41 154
-217 269 -308 l54 -43 37 52 c75 106 187 357 159 357 -5 0 -9 -6 -9 -12 0 -27
-104 -218 -152 -280 l-29 -37 -40 25 c-53 33 -227 201 -235 227 -4 11 -21 43
-39 71 -34 55 -36 58 -71 156 -13 36 -24 56 -24 45z"/>
<path d="M16801 11394 c0 -11 3 -14 6 -6 3 7 2 16 -1 19 -3 4 -6 -2 -5 -13z"/>
<path d="M17576 11390 c-134 -21 -261 -111 -317 -225 -32 -66 -58 -186 -59
-275 -1 -248 123 -426 331 -475 80 -18 257 -19 325 -1 205 54 324 233 324 486
0 242 -110 408 -310 471 -72 22 -213 31 -294 19z m256 -315 c127 -44 168 -206
77 -309 -44 -51 -98 -68 -206 -68 -156 0 -230 35 -267 124 -34 80 -10 172 60
230 55 47 231 59 336 23z"/>
<path d="M12750 11372 c8 -5 26 -13 40 -16 17 -5 20 -4 10 2 -8 5 -26 13 -40
16 -17 5 -20 4 -10 -2z"/>
<path d="M8580 11360 c-41 -4 -93 -13 -115 -19 -22 -7 -127 -15 -233 -18
l-192 -6 -60 -60 c-33 -34 -60 -65 -60 -69 0 -4 16 -8 35 -8 30 0 35 4 41 28
3 15 7 33 10 40 4 15 41 16 46 1 5 -14 -8 -109 -21 -164 -6 -22 -16 -65 -23
-95 -7 -30 -15 -57 -19 -60 -6 -5 -12 -22 -43 -120 -8 -25 -24 -70 -36 -100
-12 -30 -30 -95 -40 -145 -17 -83 -52 -201 -65 -213 -3 -3 -5 8 -5 24 0 17 5
35 11 41 5 5 14 46 19 89 16 133 38 277 49 319 6 22 11 55 11 73 0 17 3 32 8
32 4 0 7 26 6 58 0 31 3 65 8 75 6 12 5 17 -6 17 -10 0 -18 -18 -24 -52 -43
-229 -54 -295 -62 -377 -6 -51 -15 -101 -20 -111 -6 -10 -10 -41 -10 -69 0
-28 -4 -51 -9 -51 -10 0 -20 -47 -31 -140 -7 -65 -46 -231 -61 -261 -4 -9 -11
-34 -15 -55 -3 -22 -12 -46 -19 -54 -7 -8 -13 -22 -14 -30 -4 -44 -14 -96 -21
-105 -4 -5 -15 -48 -25 -95 -21 -109 -42 -186 -62 -230 -20 -42 -29 -135 -15
-144 6 -3 15 12 21 36 15 62 51 161 63 173 16 16 -1 -84 -22 -125 -23 -46 -40
-147 -33 -198 7 -54 23 -44 23 14 0 25 7 61 15 81 8 19 15 46 15 59 0 13 11
35 25 50 20 22 24 34 19 61 -4 21 0 48 10 73 9 22 16 59 16 83 0 23 12 74 25
112 14 41 25 92 25 123 0 29 6 63 14 75 8 12 24 78 35 145 12 68 28 140 37
160 21 49 44 137 44 167 0 14 4 25 9 25 4 0 14 21 21 48 6 26 23 83 36 127 13
44 33 113 45 154 12 40 32 101 46 135 29 72 69 244 78 336 4 36 9 68 12 73 2
4 66 7 141 6 95 -1 163 4 220 16 46 9 86 15 88 12 3 -3 34 3 69 13 35 10 73
16 83 13 11 -2 23 0 26 6 8 12 -25 12 -144 1z m-890 -1542 c-1 -7 -7 -26 -15
-43 l-13 -30 -1 36 c-1 20 2 39 6 42 10 11 23 8 23 -5z m-62 -250 c-12 -21
-13 -19 -16 30 -2 34 2 60 10 69 11 14 13 10 16 -30 2 -25 -3 -57 -10 -69z"/>
<path d="M12926 11311 c5 -6 47 -24 94 -41 46 -17 89 -35 95 -40 6 -5 46 -19
90 -31 44 -12 103 -29 130 -37 28 -8 61 -14 75 -13 38 3 49 3 120 -3 l65 -6
-80 19 c-44 10 -150 33 -235 51 -85 18 -159 36 -165 40 -10 8 -181 70 -193 70
-3 0 -2 -4 4 -9z"/>
<path d="M4944 11200 c0 -58 1 -81 3 -52 2 28 2 76 0 105 -2 28 -3 5 -3 -53z"/>
<path d="M4221 11234 c-31 -121 -51 -204 -51 -217 0 -8 14 -17 32 -21 54 -11
114 -52 133 -93 10 -20 18 -60 18 -88 0 -132 -94 -190 -296 -183 -117 4 -163
21 -204 75 -31 41 -42 121 -24 176 13 38 71 97 96 97 8 0 15 5 15 11 0 13 -60
253 -65 257 -2 2 -31 -11 -65 -29 -81 -43 -137 -100 -174 -179 -27 -59 -31
-76 -34 -185 -7 -229 56 -376 199 -462 75 -45 155 -63 274 -63 228 0 380 83
458 247 29 64 32 76 35 202 5 151 -6 220 -46 294 -47 88 -162 174 -259 193
-30 6 -32 4 -42 -32z"/>
<path d="M16813 11220 c0 -25 2 -35 4 -22 2 12 2 32 0 45 -2 12 -4 2 -4 -23z"/>
<path d="M9670 11200 l0 -49 200 -3 c155 -2 200 0 200 10 0 9 -24 12 -85 12
-50 0 -85 4 -85 10 0 6 73 10 200 10 127 0 200 4 200 10 0 6 53 10 140 10 77
0 140 4 140 9 0 5 -152 11 -337 15 -186 3 -391 8 -455 11 l-118 5 0 -50z"/>
<path d="M12100 11210 c0 -6 -35 -10 -85 -10 -50 0 -85 -4 -85 -10 0 -6 29
-10 68 -10 88 0 172 -11 172 -21 0 -5 -16 -9 -35 -9 -19 0 -35 -4 -35 -10 0
-6 33 -10 80 -10 l80 0 0 31 c0 47 -19 59 -94 59 -37 0 -66 -4 -66 -10z"/>
<path d="M10090 11155 c0 -8 5 -15 10 -15 6 0 10 7 10 15 0 8 -4 15 -10 15 -5
0 -10 -7 -10 -15z"/>
<path d="M7890 11137 c0 -8 7 -20 15 -27 12 -10 15 -10 15 3 0 8 -7 20 -15 27
-12 10 -15 10 -15 -3z"/>
<path d="M13683 11028 c3 -46 12 -146 21 -223 8 -77 15 -151 15 -165 -1 -36
13 -90 55 -214 20 -60 36 -117 36 -128 0 -11 4 -27 10 -37 5 -10 11 -29 14
-42 3 -13 12 -44 20 -69 8 -25 20 -72 27 -105 7 -33 16 -65 21 -71 5 -7 17
-40 27 -75 10 -35 33 -104 50 -153 18 -49 30 -95 27 -102 -3 -7 6 -41 20 -76
13 -35 34 -99 44 -142 11 -44 27 -91 36 -104 19 -29 51 -145 52 -187 1 -16 17
-79 36 -138 l36 -109 -14 -91 c-42 -263 -42 -348 -1 -494 8 -28 12 -58 9 -67
-3 -9 -1 -16 6 -16 6 0 9 -4 5 -10 -3 -5 4 -19 16 -31 16 -16 18 -23 9 -29 -8
-5 -10 -17 -6 -34 5 -19 13 -26 31 -26 16 0 25 -6 25 -15 0 -9 -9 -15 -25 -15
-16 0 -25 -6 -25 -15 0 -10 10 -15 33 -15 28 0 41 -9 81 -55 l47 -55 -75 0
-76 0 -2 -55 c-1 -30 -2 -68 -3 -84 l-2 -28 206 -5 c203 -5 210 -5 296 28 11
4 29 9 39 11 11 2 25 8 32 14 8 7 14 7 19 -1 3 -6 11 -7 18 -3 6 3 22 8 36 9
14 2 42 6 61 9 19 3 130 7 245 9 l210 3 70 33 c90 42 186 104 251 163 29 26
56 47 60 47 5 0 25 14 44 29 37 32 36 55 -2 27 -106 -76 -185 -117 -309 -159
-124 -43 -357 -45 -519 -5 -61 15 -66 22 -48 60 9 18 33 74 53 123 20 50 48
107 61 127 13 21 24 41 24 45 0 16 -82 -75 -116 -129 -20 -32 -38 -58 -39 -58
-1 0 -2 12 -2 28 -1 15 -5 43 -11 62 -10 39 -15 32 -37 -60 0 -3 -6 -14 -12
-25 -6 -11 -14 -35 -18 -53 -4 -18 -9 -31 -12 -28 -7 6 -40 -35 -83 -101 -28
-45 -36 -51 -52 -42 -108 58 -243 192 -320 319 -61 102 -97 229 -104 370 -7
151 18 356 55 445 11 27 53 176 55 195 0 8 4 17 8 20 4 3 9 15 11 25 2 11 7
28 11 37 4 9 9 22 10 30 6 28 18 68 21 68 6 0 65 -61 65 -67 0 -3 18 -28 40
-55 22 -28 40 -47 40 -43 0 4 26 -29 58 -72 108 -145 205 -231 325 -288 27
-13 41 -14 50 -7 20 17 61 123 50 131 -5 3 -40 27 -78 52 -39 25 -92 66 -118
89 -65 58 -162 190 -198 270 -69 152 -98 460 -60 645 5 28 15 88 21 133 6 46
14 90 17 98 3 8 -13 31 -36 54 -27 27 -43 36 -46 28 -7 -23 -35 -162 -44 -223
-5 -33 -15 -80 -22 -105 -8 -29 -13 -119 -13 -258 -1 -172 -3 -209 -13 -195
-7 9 -13 28 -13 42 0 36 -64 257 -106 366 -20 50 -37 106 -38 125 -2 19 -13
57 -24 84 -12 27 -22 54 -22 60 0 6 -16 49 -35 96 -19 47 -35 95 -35 106 0 12
-6 27 -14 33 -7 6 -16 32 -19 59 -13 95 -16 109 -31 147 -9 22 -29 48 -44 58
-15 9 -42 27 -61 39 -19 12 -62 32 -96 43 l-62 22 -28 -23 -28 -22 17 -41 c9
-23 16 -54 16 -69 0 -15 4 -32 10 -38 5 -5 11 -28 14 -51 2 -23 18 -70 35
-104 17 -34 31 -71 31 -81 0 -10 7 -35 16 -56 27 -63 74 -240 74 -278 0 -20
11 -68 24 -107 13 -40 28 -99 32 -131 9 -63 28 -84 36 -42 3 14 0 27 -5 29
-13 4 -2 37 13 37 5 0 10 -9 10 -19 0 -11 5 -23 10 -26 6 -3 10 -21 10 -39 0
-19 7 -39 15 -46 8 -7 15 -19 15 -27 0 -8 7 -27 15 -42 8 -16 16 -39 19 -52 3
-13 10 -42 16 -64 6 -22 18 -65 25 -95 8 -30 24 -83 36 -117 19 -56 20 -67 9
-108 -12 -42 -30 -62 -30 -32 0 7 -22 82 -50 166 -27 85 -54 188 -60 230 -19
134 -37 188 -56 168 -21 -21 56 -362 117 -522 4 -11 10 -40 14 -65 3 -24 10
-49 15 -56 11 -13 -10 -86 -27 -91 -12 -4 -23 29 -23 72 0 17 -11 53 -25 80
-13 28 -25 55 -25 61 0 6 -7 17 -15 24 -7 6 -17 32 -21 56 -3 24 -13 48 -20
52 -17 10 -54 113 -54 150 1 33 -15 135 -31 193 -6 24 -13 75 -16 114 -2 41
-10 77 -19 86 -8 8 -14 23 -14 33 0 9 -8 38 -19 64 -10 26 -24 79 -30 119 -10
64 -33 153 -62 238 -14 41 -40 161 -44 210 -7 65 -52 247 -74 295 -11 25 -21
40 -21 33 0 -25 41 -229 50 -248 6 -11 10 -38 9 -60 -1 -55 35 -214 85 -375
14 -47 29 -98 31 -115 10 -60 23 -111 43 -165 25 -66 32 -121 15 -127 -26 -9
-108 230 -97 284 4 20 -2 39 -20 66 -14 21 -26 46 -26 55 0 10 -16 65 -35 123
-19 57 -35 117 -35 132 0 15 -9 46 -20 68 -12 22 -18 44 -15 49 7 11 -11 220
-25 292 -14 69 4 103 28 56 11 -20 11 -19 6 12 -4 19 -13 39 -20 43 -8 4 -14
21 -14 37 0 24 -4 30 -21 30 -21 0 -21 -3 -16 -82z m255 -229 c27 -46 52 -136
45 -156 -3 -7 2 -28 10 -46 8 -17 18 -59 21 -92 5 -54 4 -57 -5 -22 -6 20 -15
37 -20 37 -5 0 -9 7 -9 15 0 9 -7 30 -17 48 -9 18 -17 43 -19 57 -1 14 -12 58
-23 97 -32 112 -25 137 17 62z m428 -786 c3 -10 11 -31 19 -48 13 -29 35 -114
35 -134 0 -6 -4 -11 -10 -11 -5 0 -10 10 -10 23 0 12 -7 31 -15 41 -8 11 -15
34 -15 52 0 22 -7 38 -21 48 -13 9 -19 21 -16 30 8 21 26 20 33 -1z m-346
-209 c0 -21 -4 -33 -10 -29 -5 3 -10 19 -10 36 0 16 5 29 10 29 6 0 10 -16 10
-36z m461 -199 l9 -30 -20 24 c-11 13 -20 29 -20 35 0 19 14 29 18 14 2 -7 8
-26 13 -43z m27 -89 c4 -35 -14 -26 -20 9 -4 16 -1 24 6 22 6 -2 12 -16 14
-31z m-270 -465 c7 -29 11 -56 7 -59 -12 -13 -34 25 -41 72 -10 68 16 58 34
-13z"/>
<path d="M7504 11092 c-6 -4 -23 -54 -38 -112 -14 -58 -35 -134 -46 -170 -11
-36 -27 -92 -36 -125 -57 -216 -76 -280 -85 -292 -11 -12 -10 -39 5 -163 3
-25 8 -61 11 -81 4 -23 2 -40 -5 -44 -7 -4 -11 -53 -10 -143 0 -122 -3 -197
-10 -197 -3 0 -10 -47 -11 -67 0 -10 -4 -18 -9 -18 -4 0 -11 -11 -14 -24 -3
-14 -12 -31 -19 -38 -7 -7 -25 -38 -40 -68 -62 -128 -172 -244 -319 -335 -119
-74 -131 -76 -161 -28 -33 53 -87 195 -102 273 l-13 65 -1 -63 c-1 -78 23
-198 55 -277 14 -33 27 -69 29 -80 8 -38 28 -65 48 -65 26 0 160 73 217 118
25 20 69 61 97 92 l53 55 0 -72 c0 -63 -5 -81 -39 -153 -22 -45 -44 -87 -50
-93 -5 -7 -17 -32 -27 -57 -9 -25 -22 -50 -29 -55 -12 -10 -93 -247 -114 -335
-29 -118 -29 -200 1 -200 4 0 8 -8 8 -19 0 -10 6 -34 14 -52 7 -19 17 -43 21
-54 4 -11 9 -25 10 -31 2 -6 6 -21 10 -33 9 -28 -22 -39 -134 -49 -142 -12
-280 -7 -366 12 -88 20 -220 86 -345 170 -98 67 -276 243 -334 331 -102 154
-124 180 -164 186 -20 4 -39 5 -41 3 -2 -2 24 -45 58 -95 33 -50 61 -96 61
-101 0 -5 21 -37 48 -72 26 -35 56 -77 67 -92 52 -74 201 -221 285 -282 30
-22 63 -47 72 -56 10 -8 41 -27 70 -42 28 -14 63 -35 78 -45 48 -36 144 -48
291 -37 93 8 151 7 189 0 30 -6 66 -9 80 -8 14 2 30 1 35 -3 6 -3 24 -6 40 -7
37 -2 163 -32 189 -46 12 -6 27 -6 47 2 19 8 90 11 229 9 127 -3 202 0 204 6
3 6 5 -33 5 -85 3 -224 45 -360 157 -510 30 -39 54 -75 54 -80 0 -14 41 -37
79 -44 29 -5 38 -2 65 26 57 60 130 163 165 233 19 39 42 86 51 105 9 19 20
49 24 65 4 17 9 38 12 48 3 9 1 17 -3 17 -5 0 -17 -22 -27 -49 -10 -28 -28
-60 -40 -73 -12 -13 -36 -43 -53 -68 -17 -25 -61 -75 -98 -113 l-66 -68 -25
20 c-14 11 -39 37 -55 58 -16 21 -35 45 -42 53 -40 50 -67 90 -67 97 0 5 -16
42 -35 81 -45 90 -74 221 -76 332 0 47 -3 80 -5 73 -4 -8 -48 -12 -147 -12
l-142 -1 37 35 c36 33 42 35 105 34 38 0 89 -4 116 -8 41 -7 47 -6 47 9 0 14
-13 18 -61 24 -34 3 -79 6 -100 6 -22 0 -39 2 -39 5 0 3 10 19 22 36 l23 30
87 -7 c77 -6 88 -5 88 10 0 12 -9 16 -34 16 -18 0 -54 3 -79 6 l-46 7 14 27
c14 27 15 27 89 22 72 -4 76 -4 76 17 0 19 -5 21 -59 21 -63 0 -76 8 -66 40 6
18 15 20 81 20 61 0 74 3 74 16 0 13 -11 15 -70 12 l-71 -3 7 30 c3 17 8 41
11 54 4 16 2 22 -6 17 -6 -4 -11 -15 -11 -24 0 -9 -22 -56 -48 -104 -47 -87
-172 -238 -197 -238 -7 0 -18 -7 -26 -16 -7 -8 -29 -24 -48 -35 -20 -11 -51
-28 -68 -39 l-33 -19 -12 22 c-7 12 -13 24 -13 27 0 3 -13 24 -28 47 -60 94
-127 278 -127 349 0 12 -4 24 -9 26 -9 3 -5 30 25 193 10 55 11 60 17 75 4 8
8 24 10 35 2 11 9 31 14 45 6 14 18 42 26 63 9 20 16 40 16 42 0 12 66 135 73
135 4 0 17 19 29 41 11 23 36 64 55 90 19 27 31 49 27 49 -4 0 12 18 35 40 23
23 42 47 42 55 0 7 4 15 8 17 20 8 102 121 102 140 0 11 8 46 19 77 22 67 41
144 41 170 0 10 11 52 24 92 29 92 43 154 57 244 5 39 14 93 18 120 13 73 59
237 73 260 6 11 13 43 15 70 8 129 33 318 44 331 6 7 20 15 33 18 13 3 26 15
29 27 3 11 15 23 26 26 12 3 22 17 26 35 4 18 15 32 26 35 10 3 19 14 19 24 0
23 -13 24 -34 3 -13 -12 -23 -13 -49 -6 -17 6 -70 15 -117 22 -47 6 -96 13
-110 15 -14 3 -30 2 -36 -3z m103 -554 c-2 -13 -4 -5 -4 17 -1 22 1 32 4 23 2
-10 2 -28 0 -40z m-387 -2562 c0 -2 -8 -10 -17 -17 -16 -13 -17 -12 -4 4 13
16 21 21 21 13z"/>
<path d="M9670 10942 l0 -52 178 0 c98 0 281 -3 405 -7 169 -5 227 -3 227 5 0
7 -15 12 -35 12 -24 0 -35 5 -35 15 0 8 -4 15 -10 15 -5 0 -10 -7 -10 -15 0
-8 -4 -15 -10 -15 -5 0 -10 7 -10 15 0 13 -23 15 -148 15 -172 0 -302 9 -302
21 0 5 32 9 70 9 40 0 70 4 70 10 0 6 -24 10 -52 10 -29 0 -117 3 -195 7
l-143 6 0 -51z"/>
<path d="M10090 10970 c0 -5 5 -10 10 -10 6 0 10 5 10 10 0 6 -4 10 -10 10 -5
0 -10 -4 -10 -10z"/>
<path d="M12070 10930 c0 -5 20 -10 45 -10 35 0 45 -4 45 -16 0 -15 -13 -16
-115 -9 -102 6 -115 5 -115 -9 0 -14 15 -16 104 -16 57 0 106 -4 108 -8 2 -5
22 -12 46 -16 33 -5 42 -3 42 8 0 8 4 16 8 18 5 2 12 18 15 36 l7 32 -95 0
c-57 0 -95 -4 -95 -10z"/>
<path d="M7765 10893 c-3 -21 -10 -57 -15 -81 -6 -23 -10 -54 -10 -69 0 -15
-6 -52 -14 -82 -8 -31 -19 -92 -25 -135 -7 -46 -20 -93 -32 -113 -16 -25 -20
-44 -16 -70 6 -34 2 -60 -29 -185 -8 -32 -14 -75 -14 -95 0 -42 -44 -166 -72
-202 -10 -13 -18 -39 -18 -57 0 -18 -4 -35 -9 -38 -5 -3 -12 -32 -16 -65 -4
-32 -13 -71 -21 -86 -8 -15 -14 -33 -14 -40 0 -7 -6 -15 -12 -17 -10 -4 -10
-11 1 -34 l13 -29 10 25 c13 32 34 105 59 205 11 44 24 88 29 97 6 10 10 24
10 31 0 8 11 26 25 42 15 15 24 32 22 39 -2 6 0 22 6 36 10 26 22 87 58 310
12 74 26 138 31 141 10 6 23 77 38 209 7 52 18 120 25 150 8 30 14 64 14 75 0
11 3 32 7 48 5 21 3 27 -9 27 -11 0 -18 -12 -22 -37z"/>
<path d="M4943 10795 c0 -38 2 -53 4 -32 2 20 2 52 0 70 -2 17 -4 1 -4 -38z"/>
<path d="M7166 10812 c-31 -78 -83 -156 -152 -231 -139 -149 -260 -215 -507
-275 -23 -6 -29 -3 -38 21 -6 16 -17 66 -24 113 l-13 85 -1 -60 c-1 -62 10
-144 28 -212 l11 -40 45 8 c25 5 74 20 108 34 35 14 71 25 80 25 10 0 35 11
57 25 22 14 44 25 48 25 18 0 161 130 200 182 117 152 123 163 177 311 20 54
3 45 -19 -11z"/>
<path d="M16811 10844 c0 -11 3 -14 6 -6 3 7 2 16 -1 19 -3 4 -6 -2 -5 -13z"/>
<path d="M9830 10830 c0 -6 30 -10 70 -10 40 0 70 4 70 10 0 6 -30 10 -70 10
-40 0 -70 -4 -70 -10z"/>
<path d="M11580 10820 c0 -5 -22 -10 -50 -10 -27 0 -50 -4 -50 -10 0 -6 29
-10 68 -10 37 0 111 -3 165 -7 86 -5 97 -4 97 10 0 10 5 17 10 17 6 0 10 -7
10 -15 0 -19 17 -19 36 -1 31 32 16 36 -136 36 -93 0 -150 -4 -150 -10z"/>
<path d="M11900 10815 c0 -8 7 -15 15 -15 8 0 15 7 15 15 0 8 -7 15 -15 15 -8
0 -15 -7 -15 -15z"/>
<path d="M16246 10814 c-11 -7 -18 -16 -15 -18 2 -2 13 2 23 10 11 7 18 16 15
18 -2 2 -13 -2 -23 -10z"/>
<path d="M11390 10800 c0 -5 5 -10 10 -10 6 0 10 5 10 10 0 6 -4 10 -10 10 -5
0 -10 -4 -10 -10z"/>
<path d="M11440 10800 c0 -5 5 -10 10 -10 6 0 10 5 10 10 0 6 -4 10 -10 10 -5
0 -10 -4 -10 -10z"/>
<path d="M16133 10746 c-39 -25 -103 -68 -142 -95 -39 -28 -74 -51 -78 -51 -3
0 -25 -16 -49 -35 -23 -19 -47 -35 -52 -35 -16 0 -176 -172 -221 -240 -24 -35
-58 -94 -74 -130 -17 -36 -34 -67 -39 -70 -11 -8 -38 -142 -45 -225 -3 -39 0
-110 7 -160 7 -50 13 -103 12 -118 -1 -15 3 -38 8 -51 8 -23 10 -23 63 -11 70
16 211 70 257 98 19 12 41 22 49 24 8 1 26 14 40 28 25 26 25 27 3 15 -13 -6
-32 -13 -42 -15 -10 -2 -62 -18 -116 -35 -53 -17 -100 -27 -104 -23 -18 20
-42 148 -47 255 -5 111 -4 122 26 220 59 192 126 300 269 428 19 17 36 30 39
30 3 0 31 22 62 48 31 27 103 81 160 120 116 80 124 96 14 28z"/>
<path d="M11640 10730 c0 -5 7 -10 15 -10 8 0 15 5 15 10 0 6 -7 10 -15 10 -8
0 -15 -4 -15 -10z"/>
<path d="M11640 10680 c0 -5 7 -10 15 -10 8 0 15 5 15 10 0 6 -7 10 -15 10 -8
0 -15 -4 -15 -10z"/>
<path d="M5556 10667 c3 -10 9 -15 12 -12 3 3 0 11 -7 18 -10 9 -11 8 -5 -6z"/>
<path d="M5558 10600 c2 -16 7 -30 11 -30 4 0 6 14 3 30 -2 17 -7 30 -11 30
-4 0 -6 -13 -3 -30z"/>
<path d="M10060 10595 l0 -35 66 0 c70 0 94 12 94 49 0 20 -6 21 -80 21 l-80
0 0 -35z"/>
<path d="M11760 10610 c0 -5 -11 -10 -25 -10 -16 0 -25 -6 -25 -15 0 -8 -4
-15 -10 -15 -5 0 -10 -4 -10 -10 0 -6 33 -10 80 -10 l80 0 0 35 c0 35 0 35
-45 35 -25 0 -45 -4 -45 -10z"/>
<path d="M5573 10525 c3 -11 13 -49 22 -84 18 -69 91 -260 106 -275 5 -6 9
-18 9 -27 0 -30 89 -151 158 -217 78 -73 167 -129 283 -178 64 -28 161 -63
175 -64 4 0 24 91 29 130 4 25 9 53 11 63 3 9 1 17 -4 17 -5 0 -13 -21 -17
-47 -4 -27 -9 -51 -11 -54 -5 -9 -96 9 -103 20 -4 4 -33 18 -66 29 -135 47
-249 123 -354 235 -20 22 -36 42 -36 45 -1 4 -13 26 -27 49 -43 66 -93 171
-129 268 -30 82 -60 141 -46 90z"/>
<path d="M4962 10430 c0 -19 2 -27 5 -17 2 9 2 25 0 35 -3 9 -5 1 -5 -18z"/>
<path d="M4154 10079 c-225 -143 -415 -264 -423 -269 -12 -6 -9 -32 17 -165
18 -87 34 -160 36 -162 11 -12 996 -169 996 -159 -1 22 -58 278 -64 283 -3 3
-37 9 -75 12 -39 4 -73 10 -77 14 -4 3 -20 68 -35 144 -16 76 -31 148 -34 160
-4 19 5 27 65 59 38 20 70 43 70 51 0 25 -53 277 -60 286 -3 4 -190 -110 -416
-254z m169 -328 c10 -51 17 -94 15 -96 -2 -2 -80 4 -173 14 l-170 17 70 39
c39 21 104 58 145 81 41 24 79 42 85 40 5 -1 18 -44 28 -95z"/>
<path d="M4982 10250 c0 -14 2 -19 5 -12 2 6 2 18 0 25 -3 6 -5 1 -5 -13z"/>
<path d="M17413 10230 c-112 -26 -221 -116 -272 -224 -51 -106 -66 -177 -66
-316 0 -115 2 -130 27 -183 73 -156 201 -238 419 -269 251 -36 439 95 508 352
71 267 -3 481 -202 581 -117 59 -303 86 -414 59z m184 -296 c82 -17 157 -50
185 -81 24 -26 48 -87 48 -121 0 -53 -30 -120 -70 -156 -62 -55 -159 -60 -306
-15 -121 37 -180 125 -154 228 21 85 60 129 131 149 50 15 81 14 166 -4z"/>
<path d="M4992 10180 c0 -19 2 -27 5 -17 2 9 2 25 0 35 -3 9 -5 1 -5 -18z"/>
<path d="M16762 10170 c0 -14 2 -19 5 -12 2 6 2 18 0 25 -3 6 -5 1 -5 -13z"/>
<path d="M5002 10115 c0 -16 2 -22 5 -12 2 9 2 23 0 30 -3 6 -5 -1 -5 -18z"/>
<path d="M16752 10100 c0 -14 2 -19 5 -12 2 6 2 18 0 25 -3 6 -5 1 -5 -13z"/>
<path d="M5012 10045 c0 -16 2 -22 5 -12 2 9 2 23 0 30 -3 6 -5 -1 -5 -18z"/>
<path d="M16742 10040 c0 -14 2 -19 5 -12 2 6 2 18 0 25 -3 6 -5 1 -5 -13z"/>
<path d="M5022 9985 c0 -16 2 -22 5 -12 2 9 2 23 0 30 -3 6 -5 -1 -5 -18z"/>
<path d="M16731 9984 c0 -11 3 -14 6 -6 3 7 2 16 -1 19 -3 4 -6 -2 -5 -13z"/>
<path d="M5032 9930 c0 -14 2 -19 5 -12 2 6 2 18 0 25 -3 6 -5 1 -5 -13z"/>
<path d="M5042 9880 c0 -14 2 -19 5 -12 2 6 2 18 0 25 -3 6 -5 1 -5 -13z"/>
<path d="M5052 9830 c0 -14 2 -19 5 -12 2 6 2 18 0 25 -3 6 -5 1 -5 -13z"/>
<path d="M5376 9733 c14 -31 32 -66 40 -77 8 -11 14 -27 14 -35 0 -35 180
-319 256 -404 19 -20 34 -41 34 -46 0 -11 139 -150 176 -176 68 -48 173 -102
229 -119 33 -9 86 -27 117 -38 49 -17 76 -19 206 -16 83 1 154 6 157 10 4 4 4
32 0 63 -6 54 -7 55 -33 48 -15 -5 -85 -8 -157 -7 -97 0 -138 4 -160 16 -16 8
-55 21 -85 28 -85 20 -229 92 -281 140 -8 8 -40 36 -71 62 -85 72 -338 400
-338 438 0 6 -21 46 -46 90 -31 53 -53 80 -65 80 -16 0 -16 -5 7 -57z"/>
<path d="M16681 9724 c0 -11 3 -14 6 -6 3 7 2 16 -1 19 -3 4 -6 -2 -5 -13z"/>
<path d="M5082 9690 c0 -14 2 -19 5 -12 2 6 2 18 0 25 -3 6 -5 1 -5 -13z"/>
<path d="M16671 9684 c0 -11 3 -14 6 -6 3 7 2 16 -1 19 -3 4 -6 -2 -5 -13z"/>
<path d="M16662 9640 c0 -14 2 -19 5 -12 2 6 2 18 0 25 -3 6 -5 1 -5 -13z"/>
<path d="M16651 9594 c0 -11 3 -14 6 -6 3 7 2 16 -1 19 -3 4 -6 -2 -5 -13z"/>
<path d="M16641 9554 c0 -11 3 -14 6 -6 3 7 2 16 -1 19 -3 4 -6 -2 -5 -13z"/>
<path d="M5141 9450 c0 -8 4 -24 9 -35 5 -13 9 -14 9 -5 0 8 -4 24 -9 35 -5
13 -9 14 -9 5z"/>
<path d="M5161 9380 c0 -8 4 -24 9 -35 5 -13 9 -14 9 -5 0 8 -4 24 -9 35 -5
13 -9 14 -9 5z"/>
<path d="M5191 9284 c-1 -5 10 -41 23 -80 14 -38 25 -64 25 -58 1 5 -10 41
-23 80 -14 38 -25 64 -25 58z"/>
<path d="M15392 9206 c-45 -47 -82 -89 -82 -95 0 -5 -9 -16 -20 -24 -41 -29
-114 -226 -128 -349 l-8 -67 55 -6 c31 -4 79 -11 108 -16 113 -22 318 28 477
117 89 50 190 123 181 132 -2 2 -23 -8 -47 -21 -49 -29 -194 -79 -283 -97 -83
-18 -238 -18 -307 -1 -51 13 -58 17 -58 39 0 33 41 206 50 212 4 3 29 46 55
95 25 50 54 99 64 110 34 39 43 55 34 55 -5 0 -46 -38 -91 -84z"/>
<path d="M16541 9213 c-1 -6 -4 -20 -7 -30 -5 -17 -5 -17 6 0 6 10 9 23 6 30
-3 9 -5 9 -5 0z"/>
<path d="M16932 9168 c-11 -29 -70 -185 -131 -346 -61 -162 -111 -299 -111
-306 0 -11 207 -93 214 -85 2 2 38 96 80 209 43 113 81 208 84 211 4 4 155
-49 336 -117 181 -69 330 -123 331 -122 13 19 102 275 97 279 -7 7 -830 318
-862 326 -14 4 -22 -7 -38 -49z"/>
<path d="M4526 9193 l-28 -5 6 -61 c3 -34 8 -95 12 -134 l6 -73 60 0 c104 0
162 -47 188 -151 23 -94 -35 -166 -183 -227 -92 -39 -155 -48 -212 -32 -82 23
-146 124 -130 203 8 37 41 94 60 104 11 6 -3 35 -58 120 -40 62 -75 113 -79
113 -17 0 -98 -98 -124 -149 -55 -111 -42 -267 36 -426 54 -112 114 -176 205
-221 135 -67 289 -56 465 32 102 51 177 124 225 219 28 55 30 68 30 165 0 85
-5 119 -24 175 -66 193 -159 301 -286 333 -52 13 -132 20 -169 15z"/>
<path d="M5246 9110 c4 -14 13 -38 20 -55 11 -24 13 -25 8 -5 -4 14 -13 39
-20 55 -11 24 -13 25 -8 5z"/>
<path d="M5330 8871 c0 -6 4 -13 10 -16 6 -3 7 1 4 9 -7 18 -14 21 -14 7z"/>
<path d="M11894 8800 c-50 -4 -101 -11 -112 -14 -11 -4 -37 -9 -58 -12 -76 -9
-111 -23 -117 -46 -4 -12 -5 -23 -3 -25 1 -2 25 6 52 16 160 62 387 75 682 38
75 -10 128 -21 137 -30 7 -8 31 -18 51 -22 20 -3 48 -14 63 -24 52 -34 67 -42
124 -68 31 -14 57 -30 57 -35 0 -4 9 -8 19 -8 11 0 23 -4 26 -10 3 -5 17 -10
30 -10 13 0 31 -7 40 -16 9 -10 26 -14 41 -11 34 6 105 -8 158 -33 25 -11 56
-20 70 -20 23 0 167 -31 231 -50 17 -5 68 -19 115 -32 47 -12 87 -26 90 -29 3
-4 27 -13 53 -19 26 -7 47 -13 47 -14 0 -2 -7 -23 -16 -49 -18 -53 -36 -59
-76 -28 -14 11 -63 26 -118 36 -52 10 -133 31 -180 47 -47 16 -103 33 -125 37
-22 4 -55 15 -73 24 -18 9 -97 28 -175 42 -166 31 -323 70 -367 91 -16 9 -78
26 -138 40 -59 13 -125 30 -147 39 -30 11 -91 15 -240 17 -169 2 -216 -1 -305
-18 -134 -27 -150 -32 -150 -50 0 -19 39 -18 109 2 31 8 70 19 86 24 124 35
467 13 598 -39 16 -6 41 -11 56 -11 39 0 127 -28 145 -45 8 -8 24 -15 35 -15
12 0 29 -4 39 -9 21 -11 349 -81 380 -81 13 0 35 -6 50 -14 15 -7 83 -28 152
-45 69 -18 139 -37 155 -43 65 -22 161 -47 183 -48 12 0 22 -4 22 -10 0 -5 11
-10 25 -10 26 0 29 -7 19 -34 -8 -20 -24 -20 -60 -1 -19 10 -58 15 -109 15
-51 0 -88 5 -100 14 -11 7 -60 16 -110 20 -112 9 -207 24 -262 42 -29 9 -66
12 -121 7 -54 -4 -81 -2 -86 6 -5 7 -42 11 -102 11 -55 0 -105 5 -117 12 -12
6 -101 18 -197 25 -232 17 -289 24 -296 34 -3 5 -60 9 -127 10 -67 1 -184 4
-260 8 -119 5 -137 4 -135 -9 3 -12 24 -15 108 -17 177 -3 321 -13 415 -29
141 -23 274 -36 350 -35 39 1 92 -5 120 -14 32 -10 124 -20 250 -26 110 -6
225 -17 255 -24 30 -8 91 -19 135 -26 44 -6 103 -16 130 -21 28 -5 59 -9 70
-9 59 -1 189 -22 206 -32 21 -13 22 -54 2 -50 -52 11 -143 12 -143 3 0 -14 39
-24 123 -29 4 -1 7 -10 7 -21 0 -18 -7 -20 -60 -20 -47 0 -60 -3 -60 -15 0
-11 13 -15 54 -15 50 0 53 -1 49 -23 -4 -20 -10 -23 -51 -23 -44 1 -47 0 -45
-24 2 -14 4 -45 5 -70 3 -42 5 -45 34 -48 l31 -3 6 -127 c7 -140 30 -226 88
-330 58 -103 188 -252 221 -252 25 0 168 167 168 197 0 4 -16 -8 -35 -27 l-35
-34 -36 35 c-67 64 -176 220 -202 288 -63 170 -65 179 -66 326 0 148 9 194 80
403 27 80 110 259 122 264 20 8 49 74 42 98 -6 24 -7 24 -28 -17 -12 -22 -25
-43 -30 -45 -12 -5 -64 -94 -95 -161 l-26 -57 -43 6 c-24 4 -57 13 -73 20 -17
8 -61 23 -99 34 -37 10 -73 24 -80 29 -7 6 -41 15 -77 20 -85 13 -113 19 -144
31 -15 6 -46 10 -70 10 -24 0 -45 5 -47 10 -2 6 -50 21 -108 35 -119 27 -196
57 -355 138 -117 60 -184 82 -287 98 -88 13 -325 18 -434 9z"/>
<path d="M5380 8755 c0 -5 5 -17 10 -25 5 -8 10 -10 10 -5 0 6 -5 17 -10 25
-5 8 -10 11 -10 5z"/>
<path d="M9990 8721 c-14 -5 -113 -11 -220 -15 -232 -9 -263 -11 -355 -26 -38
-6 -113 -15 -165 -21 -52 -5 -110 -14 -128 -20 -17 -6 -47 -9 -65 -8 -36 3
-133 -15 -187 -35 -19 -8 -71 -17 -115 -21 -44 -4 -101 -16 -128 -26 -26 -10
-69 -19 -95 -19 -26 0 -65 -5 -87 -10 -22 -5 -83 -16 -135 -25 -129 -20 -180
-35 -180 -51 0 -18 13 -18 90 6 36 11 93 20 128 20 41 0 71 6 88 16 19 13 37
15 83 10 50 -6 68 -3 134 24 41 16 93 30 116 30 43 0 160 22 204 39 15 6 63
13 108 16 45 3 85 8 91 11 5 3 37 7 71 9 34 2 107 12 162 23 64 13 143 21 219
22 65 0 122 2 125 5 16 9 316 5 399 -6 89 -12 122 -8 92 11 -8 6 -32 10 -54
10 -41 0 -115 18 -130 32 -12 9 -32 9 -66 -1z"/>
<path d="M9840 8619 c-58 -4 -147 -14 -198 -23 -51 -9 -97 -14 -101 -12 -11 7
-132 -12 -246 -38 -95 -22 -198 -41 -275 -51 -38 -4 -111 -21 -230 -54 -41
-11 -90 -23 -109 -26 -19 -3 -37 -8 -41 -10 -3 -2 -35 -6 -71 -9 -57 -5 -95
-13 -219 -46 -19 -5 -70 -10 -112 -10 -65 0 -76 -2 -72 -15 7 -18 125 -21 189
-4 83 22 161 38 175 36 19 -2 75 9 175 35 44 11 100 24 125 30 25 5 68 16 95
23 46 14 90 21 265 45 36 5 106 20 156 34 52 14 133 27 188 31 53 3 107 10
121 15 35 13 380 16 397 3 7 -6 45 -13 83 -17 39 -4 85 -9 103 -12 18 -4 32
-2 32 4 0 18 -86 42 -152 42 -37 0 -69 4 -72 9 -3 4 -20 11 -38 14 -18 3 -40
7 -48 9 -8 3 -62 1 -120 -3z"/>
<path d="M9845 8549 c-90 -4 -158 -13 -190 -24 -27 -10 -79 -19 -115 -20 -127
-4 -238 -24 -420 -75 -36 -10 -72 -19 -80 -18 -19 0 -170 -39 -208 -53 -54
-22 -219 -49 -327 -54 -60 -3 -137 -10 -170 -15 -33 -6 -81 -10 -107 -10 -40
0 -46 -3 -41 -16 6 -15 19 -16 117 -9 61 5 141 9 177 10 36 1 70 4 75 7 5 3
36 10 69 16 33 7 96 18 140 27 44 8 105 22 135 31 88 25 172 43 208 44 18 0
43 6 55 14 41 27 342 81 387 69 12 -3 45 1 73 10 66 20 193 37 277 37 88 0
275 -34 327 -60 49 -23 63 -25 63 -7 0 22 -101 66 -170 73 -36 4 -74 13 -85
20 -11 8 -26 13 -35 12 -8 0 -78 -4 -155 -9z"/>
<path d="M9709 8355 c-36 -6 -74 -15 -84 -19 -11 -4 -60 -9 -109 -12 -50 -2
-147 -16 -216 -30 -68 -14 -136 -23 -149 -21 -14 3 -45 -1 -70 -9 -24 -7 -48
-11 -52 -8 -4 2 -29 0 -56 -6 -56 -13 -163 -28 -248 -35 -33 -3 -86 -10 -118
-16 -32 -5 -68 -7 -80 -3 -20 6 -21 5 -6 -11 9 -9 31 -16 50 -17 47 0 240 22
372 43 38 6 83 12 100 14 88 6 300 40 353 56 17 5 48 9 70 9 21 0 45 4 52 9 8
4 33 4 58 0 31 -6 55 -4 86 7 61 22 251 37 301 23 22 -6 97 -14 166 -19 69 -4
134 -11 144 -15 13 -5 17 -2 17 12 0 18 -12 21 -107 32 -60 7 -116 17 -125 22
-24 13 -269 9 -349 -6z"/>
<path d="M16175 8329 c-9 -17 -15 -33 -13 -35 3 -2 12 12 21 31 21 43 13 47
-8 4z"/>
<path d="M11588 8310 c-15 -4 -30 -5 -33 -1 -4 3 -5 -3 -3 -14 3 -19 10 -20
124 -16 138 4 326 -7 319 -19 -3 -4 -62 -11 -132 -14 -127 -7 -276 -22 -321
-33 l-23 -5 23 -12 c14 -8 34 -9 50 -5 15 4 121 11 235 14 l208 7 59 -26 c38
-17 76 -26 110 -26 28 0 85 -9 126 -19 187 -48 232 -61 245 -75 28 -28 161
-48 418 -65 73 -4 133 -13 139 -19 9 -9 5 -12 -17 -13 -17 -1 -34 0 -40 1 -5
1 -84 4 -175 6 -91 2 -190 9 -220 16 -30 6 -65 11 -77 10 -12 -1 -37 5 -57 13
-19 8 -51 15 -69 15 -19 0 -40 7 -47 15 -8 10 -30 15 -64 15 -28 0 -67 5 -86
11 -86 26 -380 38 -692 28 l-68 -2 0 -48 c0 -28 -5 -49 -12 -52 -23 -10 13
-25 82 -36 36 -6 150 -16 253 -21 104 -6 200 -15 214 -21 23 -8 206 -28 418
-44 50 -4 95 -11 100 -15 11 -9 224 -27 387 -33 l96 -4 60 67 c53 58 58 68 44
78 -14 9 -12 11 14 11 17 1 37 7 43 15 15 18 -30 25 -214 33 -77 3 -145 10
-151 15 -6 4 -48 11 -93 15 -45 3 -84 10 -87 15 -3 4 -23 8 -44 8 -23 0 -45 7
-56 17 -9 10 -44 25 -78 34 -34 9 -88 24 -121 34 -33 10 -89 20 -125 22 -66 3
-230 50 -230 65 0 11 44 10 56 -1 8 -9 83 -26 144 -35 14 -1 61 -11 105 -20
172 -38 344 -61 570 -76 83 -6 161 -15 174 -21 31 -13 219 -24 255 -15 50 12
26 26 -46 26 -40 0 -117 9 -171 20 -61 12 -140 20 -205 20 -107 0 -178 8 -327
34 -44 8 -114 20 -155 26 -41 6 -97 16 -125 21 -27 5 -61 11 -75 13 -66 9
-108 20 -139 38 -28 16 -65 21 -220 28 -218 11 -237 11 -273 0z m1465 -457
c-13 -2 -33 -2 -45 0 -13 2 -3 4 22 4 25 0 35 -2 23 -4z"/>
<path d="M16135 8249 c-4 -6 -5 -12 -2 -15 2 -3 7 2 10 11 7 17 1 20 -8 4z"/>
<path d="M5661 8173 c110 -201 276 -458 429 -663 100 -134 258 -328 286 -351
10 -8 -27 40 -83 107 -234 282 -461 613 -622 907 -23 42 -45 77 -47 77 -3 0
14 -35 37 -77z"/>
<path d="M9930 8209 c-93 -10 -506 -30 -611 -29 -25 0 -75 -6 -111 -15 -35 -8
-116 -17 -179 -21 -63 -3 -117 -8 -121 -10 -4 -3 -64 -11 -135 -19 -118 -14
-156 -25 -140 -41 10 -10 174 3 307 25 36 6 102 11 148 11 45 0 82 4 82 8 0
22 123 33 420 38 173 3 338 9 365 13 28 5 119 6 203 2 116 -5 152 -3 152 6 0
7 -8 16 -17 21 -24 12 -280 20 -363 11z"/>
<path d="M8243 8173 c-20 -3 -33 -10 -33 -19 0 -11 16 -13 93 -8 104 6 117 9
117 24 0 10 -107 12 -177 3z"/>
<path d="M8401 8113 c-1 -24 0 -24 -113 -44 l-68 -11 0 -68 c0 -38 -3 -75 -6
-84 -5 -13 1 -16 27 -16 19 0 52 5 74 10 22 5 40 8 42 7 1 -1 -3 -65 -9 -142
-12 -168 -12 -338 2 -420 16 -93 69 -263 103 -330 62 -122 161 -229 222 -241
17 -3 80 -2 140 3 l110 9 -50 27 c-52 29 -90 54 -163 108 -51 38 -152 138
-149 147 1 4 -11 23 -26 43 -60 80 -127 244 -147 361 -15 93 -8 532 10 591 6
21 9 46 7 55 -3 12 -5 11 -6 -5z"/>
<path d="M9930 8098 c-30 -4 -152 -7 -270 -7 -163 1 -231 -2 -280 -14 -92 -22
-309 -37 -415 -28 -49 4 -112 3 -140 -2 -27 -5 -76 -7 -108 -5 l-58 4 55 -54
55 -54 113 10 c62 6 136 11 163 11 28 0 109 5 180 11 72 5 211 10 310 10 118
-1 208 4 260 14 78 14 174 26 245 31 20 2 60 7 90 13 30 6 88 14 128 17 52 5
72 11 72 21 0 10 -15 14 -60 14 -33 0 -60 4 -60 10 0 11 -198 10 -280 -2z"/>
<path d="M16030 8060 c-6 -11 -8 -20 -6 -20 3 0 10 9 16 20 6 11 8 20 6 20 -3
0 -10 -9 -16 -20z"/>
<path d="M15964 7953 c-26 -43 -54 -88 -62 -100 -8 -13 -12 -23 -9 -23 3 0 26
35 53 78 26 42 54 87 62 100 8 12 12 22 9 22 -3 0 -26 -35 -53 -77z"/>
<path d="M16857 7823 c-3 -5 4 -37 15 -71 11 -35 17 -67 14 -70 -4 -3 -29 19
-56 49 l-50 54 -25 -30 c-40 -47 -30 -66 42 -85 94 -23 94 -26 -14 -50 -29 -7
-53 -17 -53 -22 0 -18 41 -78 53 -78 6 0 30 21 54 46 48 52 49 51 28 -21 -20
-65 -15 -75 40 -75 52 0 53 2 26 89 -10 34 -16 61 -13 61 4 0 30 -23 59 -52
57 -56 69 -56 94 3 15 38 10 42 -73 59 -32 7 -60 16 -63 20 -2 3 29 14 70 24
41 10 75 21 75 24 0 20 -42 72 -59 72 -10 0 -35 -18 -55 -40 -20 -22 -38 -40
-40 -40 -2 0 5 28 15 62 16 49 17 63 7 70 -16 10 -85 11 -91 1z"/>
<path d="M6123 7803 c-24 -2 -43 -7 -43 -11 0 -4 38 -45 85 -92 47 -47 85 -90
85 -96 0 -18 265 -244 286 -244 4 0 21 -10 38 -23 43 -32 211 -121 277 -147
122 -47 279 -54 389 -18 19 6 51 12 70 13 42 2 204 38 242 53 27 11 27 12 12
48 -36 86 -28 84 -175 41 -77 -22 -102 -25 -235 -22 -133 2 -160 5 -253 32
-57 17 -106 35 -110 40 -3 5 -40 25 -81 44 -142 67 -318 197 -443 327 -40 41
-68 61 -81 60 -12 -1 -40 -3 -63 -5z"/>
<path d="M15772 7659 c-18 -27 -30 -49 -28 -49 7 0 69 91 64 95 -1 2 -18 -19
-36 -46z"/>
<path d="M4921 7691 c-12 -8 -13 -16 -2 -53 7 -24 15 -52 18 -63 4 -14 -8 -7
-39 23 -24 23 -49 42 -55 42 -17 0 -56 -58 -50 -74 3 -7 35 -19 71 -26 36 -7
66 -16 66 -20 0 -4 -31 -16 -70 -25 -42 -10 -70 -22 -70 -30 0 -23 34 -75 50
-75 8 0 34 23 58 50 24 28 47 50 52 50 4 0 0 -28 -11 -62 -26 -87 -26 -88 26
-88 56 0 63 13 41 77 -23 67 -20 70 22 25 49 -55 67 -56 95 -9 25 45 19 52
-53 62 -64 9 -82 21 -48 34 14 5 41 13 60 16 56 11 63 18 49 54 -25 59 -37 59
-94 3 -29 -29 -55 -52 -59 -52 -3 0 2 28 13 63 10 34 19 68 19 75 0 14 -67 17
-89 3z"/>
<path d="M15570 7555 c-24 -25 -48 -45 -53 -45 -4 0 -35 -23 -68 -50 -33 -28
-64 -48 -69 -45 -4 3 -10 1 -12 -3 -1 -4 -30 -25 -63 -46 -33 -21 -71 -46 -85
-55 -30 -20 -137 -71 -205 -99 -72 -29 -282 -56 -380 -49 -92 7 -242 42 -265
61 -8 7 -36 20 -62 30 -66 24 -70 33 -47 86 l20 45 -26 -30 c-26 -32 -92 -141
-113 -189 -8 -19 -9 -33 -3 -39 6 -6 60 -15 121 -20 60 -5 110 -14 110 -18 0
-5 8 -9 18 -9 9 0 71 -14 137 -31 66 -17 129 -33 141 -36 33 -8 270 55 337 89
98 49 311 194 330 225 4 7 14 13 20 13 7 0 64 49 127 110 63 60 118 110 122
110 10 0 30 40 20 40 -4 0 -28 -20 -52 -45z"/>
<path d="M12791 7452 c-48 -83 -101 -236 -108 -312 -3 -36 -10 -70 -15 -77
-16 -20 8 -211 37 -301 23 -68 31 -82 44 -75 9 4 79 8 155 9 l140 0 69 74 c61
66 127 160 127 184 0 4 -26 -16 -58 -46 -32 -30 -85 -71 -118 -93 -59 -40
-161 -95 -175 -95 -17 0 -117 263 -117 310 0 8 -4 52 -8 97 -8 97 7 207 43
306 13 38 23 70 21 73 -2 2 -19 -22 -37 -54z"/>
<path d="M9130 7325 c0 -3 18 -49 41 -102 23 -54 48 -116 55 -138 47 -131 180
-355 271 -459 24 -26 43 -52 43 -56 0 -4 26 -30 59 -58 l58 -51 269 -4 c241
-3 260 -2 179 9 -125 16 -247 59 -273 96 -7 10 -18 18 -23 18 -16 0 -149 102
-204 156 -28 27 -69 72 -92 99 -54 66 -153 213 -153 228 0 7 -26 63 -58 126
l-58 115 -54 12 c-30 7 -56 13 -57 14 -2 0 -3 -2 -3 -5z"/>
<path d="M15417 7202 c-225 -267 -542 -571 -834 -801 -51 -40 -93 -75 -93 -78
0 -6 -3 -9 130 97 174 138 326 275 505 455 170 170 380 405 363 405 -3 0 -34
-35 -71 -78z"/>
<path d="M16480 6974 c-40 -34 -60 -74 -60 -119 0 -32 -2 -35 -19 -26 -16 9
-25 3 -56 -35 -32 -38 -35 -48 -24 -58 22 -21 298 -226 303 -226 3 0 21 21 40
46 l36 47 -104 77 c-100 76 -116 95 -116 147 0 27 45 64 68 56 9 -3 65 -41
123 -85 58 -43 109 -78 112 -78 7 0 67 81 67 91 0 8 -203 160 -237 178 -39 20
-99 13 -133 -15z"/>
<path d="M6715 6804 c317 -316 666 -586 1095 -845 149 -90 611 -329 634 -329
6 1 -70 40 -169 89 -592 289 -1082 632 -1570 1100 l-150 144 160 -159z"/>
<path d="M6933 6917 c-40 -16 -71 -33 -68 -37 5 -9 218 -153 267 -181 18 -10
59 -32 91 -49 31 -17 57 -34 57 -38 0 -16 145 -80 262 -115 139 -42 198 -51
338 -52 124 0 142 2 220 29 99 34 254 106 291 135 l26 20 19 -22 c10 -13 29
-38 42 -55 l23 -32 -26 -10 c-15 -6 -31 -10 -36 -10 -13 0 -101 -50 -114 -64
-14 -16 -107 -76 -117 -76 -5 0 -6 -4 -3 -10 3 -5 40 -10 81 -10 53 0 97 -7
147 -24 76 -25 140 -56 145 -69 4 -9 57 -37 69 -37 4 0 2 4 -6 9 -19 12 -22
45 -36 344 -6 132 -5 171 4 177 8 4 -5 10 -34 15 -27 3 -55 11 -64 15 -26 14
-208 50 -254 50 l-41 0 24 -17 c14 -9 40 -30 57 -46 l33 -31 -63 -29 c-148
-70 -357 -104 -475 -77 -325 71 -374 91 -659 261 -118 71 -117 71 -200 36z"/>
<path d="M5337 6926 c-130 -48 -197 -143 -197 -278 0 -84 27 -152 87 -226 39
-47 145 -122 172 -122 9 0 36 18 61 39 l44 39 -60 30 c-166 84 -218 244 -113
344 113 108 280 27 333 -162 16 -55 19 -59 35 -48 50 36 81 69 81 86 0 36 -69
158 -116 206 -66 67 -130 97 -218 102 -47 3 -84 0 -109 -10z"/>
<path d="M8966 6859 c-37 -73 -39 -86 -12 -76 14 5 61 135 53 144 -3 2 -21
-29 -41 -68z"/>
<path d="M12396 6914 c-5 -14 -4 -15 9 -4 17 14 19 20 6 20 -5 0 -12 -7 -15
-16z"/>
<path d="M12344 6842 c-72 -87 -218 -228 -274 -264 -115 -74 -313 -138 -429
-138 -28 0 -51 -4 -51 -10 0 -6 76 -10 208 -10 l209 0 87 79 c96 89 132 129
191 216 22 33 46 66 53 73 17 18 55 93 49 98 -2 2 -21 -17 -43 -44z"/>
<path d="M8198 6833 c17 -2 47 -2 65 0 17 2 3 4 -33 4 -36 0 -50 -2 -32 -4z"/>
<path d="M11150 6825 c0 -8 9 -15 20 -15 11 0 20 7 20 15 0 8 -9 15 -20 15
-11 0 -20 -7 -20 -15z"/>
<path d="M8398 6813 c7 -3 16 -2 19 1 4 3 -2 6 -13 5 -11 0 -14 -3 -6 -6z"/>
<path d="M8815 6763 c-95 -11 -117 -15 -109 -21 5 -4 10 -72 11 -152 1 -80 8
-179 17 -221 15 -81 62 -173 83 -164 7 2 13 0 13 -5 0 -5 -10 -11 -22 -13 -23
-4 -23 -4 -1 -6 15 -1 23 -10 28 -31 7 -33 47 -65 41 -33 -17 91 -26 184 -31
328 -6 169 -7 170 -33 191 -22 18 -24 24 -14 37 7 9 32 18 55 22 86 14 129 27
115 36 -11 8 -11 10 0 18 26 16 -65 25 -153 14z"/>
<path d="M14697 6749 c-35 -27 -299 -160 -305 -155 -2 2 -36 -7 -75 -20 -103
-35 -233 -63 -329 -70 -133 -9 -374 49 -487 119 l-34 21 44 38 44 38 -38 0
c-21 0 -72 -7 -114 -16 -41 -8 -82 -13 -90 -10 -8 3 -12 2 -9 -2 3 -5 -27 -14
-67 -20 l-72 -12 0 -168 c0 -188 -18 -330 -43 -350 -28 -22 15 -10 88 25 120
56 183 73 275 73 79 0 109 11 67 24 -10 4 -27 14 -38 24 -42 39 -151 104 -191
115 -24 6 -43 14 -43 17 0 3 18 27 39 53 35 42 41 46 54 32 9 -8 19 -15 24
-15 12 0 191 -93 223 -116 35 -25 105 -37 227 -38 111 -1 142 3 230 27 56 15
143 45 193 66 49 22 90 38 90 35 0 -12 232 119 344 194 l128 87 -28 12 c-42
18 -75 15 -107 -8z"/>
<path d="M13491 6736 c2 -2 31 -6 64 -9 39 -4 50 -3 30 2 -31 9 -102 14 -94 7z"/>
<path d="M8995 6711 c-11 -5 -47 -12 -79 -16 -59 -7 -106 -22 -106 -35 0 -10
96 -30 138 -29 55 1 67 9 68 52 1 20 1 37 0 36 0 0 -10 -4 -21 -8z"/>
<path d="M12823 6684 c-7 -3 -9 -12 -6 -20 3 -8 -1 -14 -8 -14 -30 -1 18 -18
83 -30 82 -15 100 -31 71 -63 -16 -17 -21 -38 -22 -93 -1 -38 -6 -95 -11 -125
-39 -229 -47 -295 -40 -303 14 -14 40 13 40 40 0 18 6 24 23 25 22 1 22 1 1 7
-16 6 -19 12 -13 27 l8 20 1 -20 c1 -15 3 -16 7 -5 3 8 16 28 29 43 13 15 26
44 30 65 4 20 13 46 20 57 16 26 33 155 35 275 2 94 2 94 -24 101 -36 10 -209
20 -224 13z"/>
<path d="M9298 6663 c7 -3 16 -2 19 1 4 3 -2 6 -13 5 -11 0 -14 -3 -6 -6z"/>
<path d="M9230 6650 c-62 -3 -120 -13 -142 -22 -20 -9 -45 -14 -56 -11 -12 3
-22 -1 -25 -11 -4 -9 -7 -89 -8 -179 -1 -154 12 -280 33 -321 9 -17 5 -18 -66
-14 -42 2 -77 0 -78 -4 -2 -4 -70 -10 -153 -14 -151 -6 -349 11 -394 35 -10 6
-49 17 -87 25 -38 8 -111 27 -162 41 l-93 25 -46 -32 c-25 -18 -55 -39 -67
-47 -11 -8 -31 -24 -44 -35 l-23 -20 68 -24 c163 -55 395 -119 508 -138 168
-29 433 -20 540 18 64 23 158 69 201 98 38 27 44 29 45 13 1 -10 3 -31 5 -48
2 -19 0 -25 -5 -16 -6 9 -11 10 -15 2 -12 -18 17 -51 67 -77 53 -26 90 -33 42
-7 -37 20 -90 63 -77 63 5 0 16 -7 23 -17 8 -9 36 -26 62 -39 27 -12 43 -24
35 -27 -7 -3 5 -3 26 0 26 4 37 3 33 -4 -5 -7 12 -14 45 -18 29 -4 62 -9 73
-12 11 -2 162 -6 335 -7 l315 -4 -282 7 c-155 3 -285 10 -290 15 -4 5 21 6 62
3 43 -3 60 -2 45 3 -17 5 -19 8 -7 9 21 1 21 11 1 86 -39 152 -60 459 -31 477
8 5 5 8 -8 8 -118 1 -468 52 -492 72 -18 15 -16 36 5 46 9 6 49 15 88 21 73
13 140 44 129 61 -3 6 -13 10 -21 10 -8 0 -12 5 -9 10 3 6 5 9 3 8 -2 -1 -50
-4 -108 -8z m-60 -244 c0 -41 -3 -77 -7 -79 -5 -3 -8 31 -9 74 0 43 3 79 8 79
4 0 8 -33 8 -74z m263 -543 c-7 -2 -21 -2 -30 0 -10 3 -4 5 12 5 17 0 24 -2
18 -5z m105 -10 c-15 -2 -42 -2 -60 0 -18 2 -6 4 27 4 33 0 48 -2 33 -4z"/>
<path d="M11425 6630 c-8 -16 -15 -36 -15 -45 0 -8 -4 -15 -9 -15 -8 0 -41
-103 -41 -128 0 -8 21 -11 68 -10 49 1 55 3 24 5 l-43 4 6 37 c3 20 10 55 15
77 14 63 20 105 15 105 -2 0 -11 -13 -20 -30z"/>
<path d="M11170 6635 c0 -8 9 -15 20 -15 11 0 20 7 20 15 0 8 -9 15 -20 15
-11 0 -20 -7 -20 -15z"/>
<path d="M12760 6596 c0 -32 3 -36 37 -42 34 -6 149 8 161 21 12 12 -17 25
-73 35 -138 24 -125 25 -125 -14z"/>
<path d="M16205 6606 c-61 -26 -128 -115 -145 -191 -5 -26 -1 -35 32 -64 l38
-33 0 33 c1 46 33 114 63 134 21 13 30 14 47 5 24 -13 24 -11 -14 -113 -14
-37 -26 -79 -26 -93 0 -33 25 -81 49 -94 29 -15 93 -12 119 6 26 18 62 84 62
114 0 15 6 20 26 20 33 0 76 45 92 96 10 34 9 41 -10 61 -27 28 -38 29 -38 3
0 -42 -29 -32 -110 40 -105 92 -128 101 -185 76z m161 -219 c24 -20 22 -49 -4
-79 -19 -22 -30 -23 -54 -1 -21 18 -23 46 -7 92 12 34 13 34 65 -12z"/>
<path d="M9349 6580 c-9 -5 -43 -12 -75 -16 -69 -8 -128 -29 -119 -44 10 -16
104 -39 180 -43 39 -3 61 -3 50 0 -17 3 -20 10 -17 42 6 56 0 72 -19 61z"/>
<path d="M12428 6583 c-50 -14 8 -55 102 -73 29 -5 64 -16 78 -23 49 -23 37
-66 -19 -72 -19 -2 -65 -11 -104 -19 -38 -9 -119 -16 -180 -17 -60 -1 -102 -3
-92 -6 16 -4 17 -13 12 -91 -4 -48 -11 -100 -16 -117 -4 -16 -20 -88 -34 -159
-15 -71 -33 -142 -41 -158 -14 -27 -14 -28 10 -28 14 0 29 -6 33 -14 4 -8 19
-16 33 -18 55 -7 -418 2 -610 13 -151 8 -213 8 -234 0 -16 -7 -44 -8 -64 -5
l-36 7 51 -64 c28 -35 79 -85 114 -111 35 -26 75 -56 89 -66 41 -30 170 -79
245 -92 39 -7 75 -17 81 -21 21 -17 226 -22 344 -9 63 7 142 14 175 16 55 3
304 55 350 73 18 8 16 12 -25 50 -101 95 -96 93 -191 77 -106 -18 -161 -21
-384 -21 -161 0 -186 2 -243 23 -34 12 -69 22 -77 22 -24 0 -188 69 -215 90
l-25 20 150 -5 c519 -17 651 -16 744 4 95 21 132 39 168 79 22 25 22 26 60 9
21 -10 83 -29 138 -42 109 -27 292 -34 410 -15 33 5 87 11 120 14 95 8 450
109 479 136 4 5 -9 20 -30 34 -22 14 -52 36 -67 48 l-28 22 -107 -27 c-136
-35 -298 -52 -482 -51 -105 1 -157 5 -189 17 -31 11 -51 13 -68 6 -13 -5 -47
-9 -75 -9 -47 0 -50 1 -44 23 17 61 28 188 29 336 l2 165 -30 7 c-38 8 -97 34
-91 40 6 6 -195 8 -216 2z m142 -710 c-21 -27 -75 -62 -95 -62 -5 0 8 9 30 21
21 11 48 31 58 44 10 13 21 24 23 24 3 0 -4 -12 -16 -27z m-157 -70 c-7 -2
-21 -2 -30 0 -10 3 -4 5 12 5 17 0 24 -2 18 -5z m44 1 c-3 -3 -12 -4 -19 -1
-8 3 -5 6 6 6 11 1 17 -2 13 -5z m-124 -11 c-13 -2 -35 -2 -50 0 -16 2 -5 4
22 4 28 0 40 -2 28 -4z"/>
<path d="M12391 6524 c0 -11 3 -14 6 -6 3 7 2 16 -1 19 -3 4 -6 -2 -5 -13z"/>
<path d="M11140 6520 c0 -5 4 -10 9 -10 6 0 13 5 16 10 3 6 -1 10 -9 10 -9 0
-16 -4 -16 -10z"/>
<path d="M12418 6471 c4 -45 2 -50 -20 -54 -52 -10 66 -6 136 4 78 12 115 33
80 46 -11 3 -22 10 -25 15 -3 5 -37 13 -75 19 -38 5 -76 12 -84 14 -12 4 -14
-4 -12 -44z"/>
<path d="M11140 6470 c0 -5 11 -10 25 -10 14 0 25 5 25 10 0 6 -11 10 -25 10
-14 0 -25 -4 -25 -10z"/>
<path d="M9535 6460 c31 -8 112 -13 104 -6 -2 2 -33 6 -69 9 -41 3 -54 2 -35
-3z"/>
<path d="M5671 6386 l-32 -33 45 -12 c54 -13 116 -64 116 -95 0 -45 -18 -46
-103 -5 -45 22 -96 39 -114 39 -136 0 -152 -157 -23 -213 41 -18 50 -26 50
-49 0 -34 48 -82 96 -98 33 -11 38 -10 61 13 l25 24 -26 7 c-14 3 -26 12 -26
19 0 7 38 50 85 96 46 46 87 92 91 103 23 73 -80 197 -192 232 -15 4 -29 -3
-53 -28z m13 -211 c20 -8 36 -19 36 -24 0 -5 -15 -20 -34 -35 -28 -21 -39 -24
-60 -16 -14 5 -30 18 -36 29 -8 17 -7 24 10 41 24 24 36 25 84 5z"/>
<path d="M12268 6403 c17 -2 47 -2 65 0 17 2 3 4 -33 4 -36 0 -50 -2 -32 -4z"/>
<path d="M13470 6344 c0 -1 8 -8 17 -15 14 -12 16 -12 9 1 -7 13 -6 13 6 0 15
-17 48 -25 48 -12 0 17 -27 32 -54 30 -14 -1 -26 -3 -26 -4z"/>
<path d="M10487 6317 c-9 -14 -32 -35 -51 -47 -28 -17 -36 -28 -36 -51 0 -34
5 -35 48 -9 l32 20 0 -120 0 -120 35 0 35 0 2 150 c1 83 2 160 2 173 1 33 -46
36 -67 4z"/>
<path d="M15940 6319 c-89 -54 -130 -118 -130 -205 0 -74 34 -134 98 -175 56
-36 132 -40 190 -10 44 23 103 83 127 130 16 33 16 33 -11 62 -34 36 -39 36
-53 0 -16 -36 -69 -87 -100 -94 -31 -8 -79 13 -111 47 -50 55 -22 143 59 183
l40 20 -32 32 c-18 17 -35 31 -37 31 -3 0 -21 -10 -40 -21z"/>
<path d="M10687 6310 c-97 -76 -13 -256 94 -200 16 9 19 7 19 -10 0 -35 -19
-60 -46 -60 -13 0 -27 7 -30 15 -4 9 -19 15 -40 15 -28 0 -34 -4 -34 -20 0
-12 11 -32 25 -45 32 -32 103 -35 145 -5 70 50 76 242 10 303 -38 34 -104 38
-143 7z m109 -75 c16 -63 -32 -109 -68 -65 -24 29 -23 65 2 90 25 25 56 13 66
-25z"/>
<path d="M10946 6238 c-9 -46 -16 -86 -16 -89 0 -17 52 -18 75 -3 23 15 27 15
50 0 27 -18 34 -61 15 -97 -14 -25 -56 -25 -72 1 -17 27 -78 28 -78 2 0 -23
34 -60 67 -73 83 -31 163 25 163 116 0 71 -43 115 -111 115 -26 0 -30 3 -27
23 3 20 8 22 66 21 l62 -1 0 34 0 33 -89 0 -88 0 -17 -82z"/>
<path d="M11217 6245 c-25 -111 -24 -118 16 -112 17 3 44 9 58 12 34 9 59 -16
59 -59 0 -46 -31 -73 -65 -58 -14 6 -25 18 -25 27 0 11 -10 15 -35 15 -42 0
-47 -22 -15 -63 44 -55 136 -53 184 4 31 37 36 111 10 148 -20 28 -79 54 -105
46 -15 -5 -19 -1 -19 19 0 25 2 26 65 26 l65 0 0 35 0 35 -88 0 -89 0 -16 -75z"/>
<path d="M14396 6261 c-3 -4 -74 -55 -158 -111 -84 -57 -157 -107 -163 -113
-18 -18 16 3 167 105 132 89 182 128 165 128 -3 0 -8 -4 -11 -9z"/>
<path d="M12940 6073 c0 -9 -8 -25 -17 -36 -17 -19 -17 -19 4 -6 29 17 49 59
28 59 -8 0 -15 -8 -15 -17z"/>
<path d="M5948 6040 c-112 -61 -145 -193 -74 -300 24 -37 118 -110 141 -110
13 0 71 58 64 63 -2 2 -25 16 -51 31 -84 47 -99 123 -38 185 66 65 144 41 205
-63 9 -15 14 -14 42 16 l33 34 -35 52 c-52 76 -102 106 -184 109 -51 3 -74 -1
-103 -17z"/>
<path d="M14034 6014 c-18 -14 -18 -15 4 -4 12 6 22 13 22 15 0 8 -5 6 -26
-11z"/>
<path d="M15595 5983 c-50 -26 -106 -85 -131 -137 l-23 -49 32 -38 32 -38 16
50 c28 85 95 135 128 95 9 -11 3 -30 -29 -87 -49 -91 -54 -151 -16 -192 53
-57 130 -43 177 31 16 25 29 52 29 59 0 8 12 13 31 13 23 0 41 9 64 34 41 44
51 80 30 112 -17 26 -35 32 -35 10 0 -7 -6 -19 -14 -25 -11 -10 -28 4 -87 70
-101 111 -138 127 -204 92z m149 -216 c32 -42 32 -52 1 -83 -20 -20 -29 -23
-44 -14 -11 5 -22 19 -26 29 -6 21 22 101 36 101 4 0 19 -15 33 -33z"/>
<path d="M13884 5924 c-18 -14 -18 -15 4 -4 12 6 22 13 22 15 0 8 -5 6 -26
-11z"/>
<path d="M15176 5873 c-25 -20 -46 -38 -46 -40 0 -3 80 -102 178 -221 97 -119
180 -220 184 -225 7 -11 101 61 96 73 -2 4 -85 107 -184 228 l-182 221 -46
-36z"/>
<path d="M13708 5829 c-21 -11 -38 -22 -38 -24 0 -3 18 4 40 15 22 11 40 23
40 25 0 7 0 7 -42 -16z"/>
<path d="M10205 5820 c-47 -6 -48 -6 -15 -11 35 -4 34 -4 -50 -47 -47 -24
-127 -54 -179 -67 -87 -22 -109 -23 -325 -21 -184 2 -240 6 -276 19 -25 9 -84
23 -132 31 -48 9 -98 18 -112 22 -28 7 -61 -15 -150 -98 -28 -26 -55 -48 -61
-48 -24 -2 170 -54 280 -75 66 -13 140 -29 165 -35 51 -14 328 -19 437 -8 89
9 177 31 246 62 29 13 60 26 70 29 38 14 136 88 215 164 45 43 82 82 82 86 0
8 -123 7 -195 -3z"/>
<path d="M6281 5783 l-31 -38 53 -6 c81 -9 136 -54 122 -99 -8 -26 -19 -25
-99 5 -92 34 -145 33 -185 -4 -67 -63 -23 -165 82 -192 40 -10 47 -15 47 -36
0 -31 39 -66 91 -82 38 -11 43 -11 65 10 26 24 23 39 -7 39 -33 0 -21 29 45
109 98 118 104 141 60 206 -43 64 -106 107 -176 120 -32 6 -38 3 -67 -32z m52
-209 c15 -3 27 -8 27 -11 0 -13 -54 -73 -66 -73 -31 0 -64 24 -64 46 0 26 37
56 60 49 8 -2 27 -7 43 -11z"/>
<path d="M12133 5803 c9 -2 23 -2 30 0 6 3 -1 5 -18 5 -16 0 -22 -2 -12 -5z"/>
<path d="M13455 5700 c-3 -6 1 -7 9 -4 18 7 21 14 7 14 -6 0 -13 -4 -16 -10z"/>
<path d="M8490 5610 c19 -11 40 -19 45 -19 6 0 -6 8 -25 19 -19 11 -39 19 -45
19 -5 0 6 -8 25 -19z"/>
<path d="M15125 5589 c-22 -16 -41 -34 -43 -39 -2 -4 31 -54 72 -110 85 -113
93 -144 51 -185 -44 -45 -63 -33 -160 100 -42 58 -82 105 -88 105 -7 0 -30
-15 -52 -34 l-39 -33 59 -83 c124 -172 171 -206 248 -181 41 14 97 72 97 101
0 25 15 33 30 15 10 -12 19 -9 60 22 l49 37 -30 40 c-17 23 -69 94 -117 159
-47 64 -88 117 -91 117 -3 0 -24 -14 -46 -31z"/>
<path d="M8560 5580 c8 -5 20 -10 25 -10 6 0 3 5 -5 10 -8 5 -19 10 -25 10 -5
0 -3 -5 5 -10z"/>
<path d="M6565 5417 c-60 -83 -110 -155 -110 -160 0 -5 20 -23 45 -42 l44 -33
55 73 c44 59 64 78 104 95 58 25 86 18 115 -29 l18 -29 47 35 47 35 -20 38
c-10 20 -26 40 -35 44 -28 11 -89 6 -115 -9 -40 -23 -42 -18 -10 26 l30 41
-45 34 c-24 19 -47 34 -52 34 -4 -1 -57 -69 -118 -153z"/>
<path d="M8610 5560 c8 -5 20 -10 25 -10 6 0 3 5 -5 10 -8 5 -19 10 -25 10 -5
0 -3 -5 5 -10z"/>
<path d="M8660 5540 c8 -5 20 -10 25 -10 6 0 3 5 -5 10 -8 5 -19 10 -25 10 -5
0 -3 -5 5 -10z"/>
<path d="M12967 5498 c-59 -23 -105 -43 -103 -45 4 -4 216 74 225 82 10 11
-18 2 -122 -37z"/>
<path d="M8701 5527 c8 -9 141 -58 146 -54 2 2 -25 14 -59 27 -92 33 -93 34
-87 27z"/>
<path d="M8861 5466 c8 -8 210 -76 223 -75 6 0 -34 16 -89 35 -127 44 -141 48
-134 40z"/>
<path d="M14544 5406 c-50 -22 -244 -147 -244 -157 0 -10 283 -465 300 -482 8
-9 238 130 283 172 46 42 60 77 55 138 -8 91 -91 165 -169 149 -25 -5 -26 -4
-21 49 3 40 0 62 -12 80 -39 59 -123 81 -192 51z m64 -132 c35 -24 29 -67 -15
-103 -21 -17 -43 -31 -49 -31 -11 0 -61 67 -66 89 -3 12 70 60 92 61 9 0 26
-7 38 -16z m160 -181 c49 -43 30 -89 -54 -138 l-47 -28 -17 23 c-9 12 -25 37
-35 57 -22 40 -27 32 59 81 49 27 67 28 94 5z"/>
<path d="M12640 5385 c-19 -7 -28 -13 -20 -13 8 0 31 6 50 13 19 7 28 13 20
13 -8 0 -31 -6 -50 -13z"/>
<path d="M12525 5350 c-13 -5 -14 -9 -5 -9 8 0 24 4 35 9 13 5 14 9 5 9 -8 0
-24 -4 -35 -9z"/>
<path d="M12478 5333 c7 -3 16 -2 19 1 4 3 -2 6 -13 5 -11 0 -14 -3 -6 -6z"/>
<path d="M6915 5288 c-55 -32 -102 -98 -111 -154 -9 -62 9 -116 54 -166 49
-54 102 -78 178 -78 75 0 114 23 162 95 32 46 34 55 30 116 -3 50 -10 75 -28
103 -62 92 -201 133 -285 84z m181 -91 c20 -17 27 -32 26 -57 -2 -70 -98 -178
-146 -164 -29 8 -66 51 -66 76 0 61 86 168 135 168 13 0 36 -11 51 -23z"/>
<path d="M12290 5290 c-36 -10 -58 -18 -50 -19 8 0 47 8 85 18 39 11 61 19 50
19 -11 0 -49 -8 -85 -18z"/>
<path d="M9468 5283 c7 -3 16 -2 19 1 4 3 -2 6 -13 5 -11 0 -14 -3 -6 -6z"/>
<path d="M9508 5273 c7 -3 16 -2 19 1 4 3 -2 6 -13 5 -11 0 -14 -3 -6 -6z"/>
<path d="M9558 5263 c7 -3 16 -2 19 1 4 3 -2 6 -13 5 -11 0 -14 -3 -6 -6z"/>
<path d="M12198 5263 c7 -3 16 -2 19 1 4 3 -2 6 -13 5 -11 0 -14 -3 -6 -6z"/>
<path d="M9598 5253 c6 -2 18 -2 25 0 6 3 1 5 -13 5 -14 0 -19 -2 -12 -5z"/>
<path d="M12148 5253 c6 -2 18 -2 25 0 6 3 1 5 -13 5 -14 0 -19 -2 -12 -5z"/>
<path d="M9648 5243 c6 -2 18 -2 25 0 6 3 1 5 -13 5 -14 0 -19 -2 -12 -5z"/>
<path d="M12098 5243 c6 -2 18 -2 25 0 6 3 1 5 -13 5 -14 0 -19 -2 -12 -5z"/>
<path d="M9698 5233 c6 -2 18 -2 25 0 6 3 1 5 -13 5 -14 0 -19 -2 -12 -5z"/>
<path d="M12048 5233 c6 -2 18 -2 25 0 6 3 1 5 -13 5 -14 0 -19 -2 -12 -5z"/>
<path d="M9748 5223 c6 -2 18 -2 25 0 6 3 1 5 -13 5 -14 0 -19 -2 -12 -5z"/>
<path d="M12008 5223 c7 -3 16 -2 19 1 4 3 -2 6 -13 5 -11 0 -14 -3 -6 -6z"/>
<path d="M9798 5213 c6 -2 18 -2 25 0 6 3 1 5 -13 5 -14 0 -19 -2 -12 -5z"/>
<path d="M11948 5213 c6 -2 18 -2 25 0 6 3 1 5 -13 5 -14 0 -19 -2 -12 -5z"/>
<path d="M9858 5203 c6 -2 18 -2 25 0 6 3 1 5 -13 5 -14 0 -19 -2 -12 -5z"/>
<path d="M11898 5203 c7 -3 16 -2 19 1 4 3 -2 6 -13 5 -11 0 -14 -3 -6 -6z"/>
<path d="M9923 5193 c9 -2 23 -2 30 0 6 3 -1 5 -18 5 -16 0 -22 -2 -12 -5z"/>
<path d="M11823 5193 c9 -2 23 -2 30 0 6 3 -1 5 -18 5 -16 0 -22 -2 -12 -5z"/>
<path d="M9983 5183 c9 -2 23 -2 30 0 6 3 -1 5 -18 5 -16 0 -22 -2 -12 -5z"/>
<path d="M11763 5183 c9 -2 23 -2 30 0 6 3 -1 5 -18 5 -16 0 -22 -2 -12 -5z"/>
<path d="M10053 5173 c9 -2 25 -2 35 0 9 3 1 5 -18 5 -19 0 -27 -2 -17 -5z"/>
<path d="M11693 5173 c9 -2 23 -2 30 0 6 3 -1 5 -18 5 -16 0 -22 -2 -12 -5z"/>
<path d="M10123 5163 c9 -2 25 -2 35 0 9 3 1 5 -18 5 -19 0 -27 -2 -17 -5z"/>
<path d="M11608 5163 c12 -2 30 -2 40 0 9 3 -1 5 -23 4 -22 0 -30 -2 -17 -4z"/>
<path d="M10218 5153 c12 -2 30 -2 40 0 9 3 -1 5 -23 4 -22 0 -30 -2 -17 -4z"/>
<path d="M11523 5153 c9 -2 25 -2 35 0 9 3 1 5 -18 5 -19 0 -27 -2 -17 -5z"/>
<path d="M10308 5143 c12 -2 32 -2 45 0 12 2 2 4 -23 4 -25 0 -35 -2 -22 -4z"/>
<path d="M11433 5143 c9 -2 25 -2 35 0 9 3 1 5 -18 5 -19 0 -27 -2 -17 -5z"/>
<path d="M10428 5133 c18 -2 45 -2 60 0 15 2 0 4 -33 4 -33 0 -45 -2 -27 -4z"/>
<path d="M11288 5133 c18 -2 45 -2 60 0 15 2 0 4 -33 4 -33 0 -45 -2 -27 -4z"/>
<path d="M10608 5123 c28 -2 76 -2 105 0 28 2 5 3 -53 3 -58 0 -81 -1 -52 -3z"/>
<path d="M11058 5123 c28 -2 76 -2 105 0 28 2 5 3 -53 3 -58 0 -81 -1 -52 -3z"/>
<path d="M7282 4948 c-50 -90 -92 -169 -94 -175 -2 -7 20 -26 47 -42 l50 -29
62 111 c34 61 71 116 85 123 50 28 108 6 108 -42 0 -10 -30 -73 -66 -138 -50
-92 -62 -121 -52 -128 18 -12 86 -48 92 -48 2 0 34 55 72 123 77 140 88 191
55 244 -31 49 -66 67 -127 67 -50 -1 -53 0 -48 20 4 17 -5 26 -45 49 l-49 27
-90 -162z"/>
<path d="M13833 5020 c-24 -10 -43 -39 -43 -67 0 -30 37 -63 70 -63 37 0 60
24 60 63 0 38 -7 50 -37 66 -25 13 -21 12 -50 1z"/>
<path d="M13642 4924 c-61 -27 -60 -21 -11 -132 16 -35 29 -67 29 -72 0 -4
-20 -10 -45 -12 -94 -11 -155 -83 -155 -184 1 -124 88 -224 196 -224 48 0 96
22 123 56 15 20 24 25 30 16 5 -9 20 -6 59 10 29 12 52 26 52 31 0 8 -206 501
-218 523 -5 8 -23 5 -60 -12z m55 -296 c6 -7 24 -48 42 -91 25 -61 29 -81 21
-97 -14 -26 -42 -40 -78 -40 -58 0 -126 113 -103 172 20 52 94 87 118 56z"/>
<path d="M13915 4843 c-27 -14 -51 -26 -53 -28 -4 -3 168 -355 174 -355 2 0
27 11 54 25 l50 25 -24 53 c-30 66 -147 307 -149 307 -1 -1 -24 -13 -52 -27z"/>
<path d="M7774 4811 c-33 -20 -64 -75 -64 -114 0 -13 11 -41 25 -61 l24 -36
-28 0 c-37 0 -54 -22 -49 -60 4 -27 2 -30 -24 -30 -36 0 -83 -24 -92 -45 -27
-72 21 -142 134 -194 144 -67 250 -31 250 83 0 43 -31 81 -105 129 -51 33 -66
63 -30 61 11 -1 46 -8 77 -15 51 -11 62 -11 93 4 39 18 75 69 75 105 0 19 3
21 19 12 11 -5 22 -10 25 -10 9 0 38 60 34 71 -2 5 -55 34 -118 64 -130 61
-190 70 -246 36z m145 -76 c34 -17 45 -50 28 -84 -26 -54 -88 -59 -117 -8 -18
33 -5 77 30 94 31 16 26 16 59 -2z m-139 -320 c14 -7 34 -23 45 -35 40 -44
-23 -77 -87 -44 -46 23 -68 44 -68 65 0 38 50 44 110 14z"/>
<path d="M8475 4768 c-23 -61 -175 -525 -175 -534 0 -7 24 -20 53 -30 28 -9
57 -19 63 -21 8 -3 34 61 69 168 l58 173 43 -109 c23 -60 47 -111 53 -113 10
-3 72 32 188 106 20 12 17 -2 -32 -149 -30 -90 -55 -168 -55 -174 0 -16 130
-57 135 -42 2 7 43 131 90 276 48 144 83 266 78 271 -4 4 -30 15 -57 24 l-49
16 -119 -75 -119 -75 -10 28 c-6 15 -29 74 -52 131 -39 96 -45 105 -77 116
-74 26 -80 27 -85 13z"/>
<path d="M14240 4699 c-31 -13 -40 -26 -40 -65 0 -33 26 -64 53 -64 23 0 37
-31 37 -84 0 -54 10 -63 38 -33 90 96 21 289 -88 246z"/>
<path d="M13170 4541 c-19 -11 -44 -34 -54 -52 -18 -31 -20 -32 -27 -11 -5 12
-12 22 -17 22 -17 0 -102 -32 -102 -39 0 -9 118 -363 123 -368 3 -3 37 8 104
32 8 3 0 40 -29 125 -26 79 -38 129 -34 146 15 59 81 84 110 42 9 -12 32 -72
52 -132 20 -61 40 -115 44 -120 11 -11 110 22 110 37 0 7 -19 68 -41 136 -52
155 -81 192 -155 197 -35 3 -59 -1 -84 -15z"/>
<path d="M12150 4462 c-95 -21 -125 -31 -123 -42 6 -51 107 -546 112 -552 5
-6 32 -2 117 17 l21 5 -22 112 c-13 62 -23 114 -22 114 1 1 35 9 76 18 94 20
134 46 160 100 36 74 23 153 -35 208 -60 56 -100 59 -284 20z m170 -102 c26
-14 34 -57 16 -86 -15 -21 -69 -44 -107 -44 -20 0 -26 14 -35 79 -6 46 -5 50
17 54 44 8 90 7 109 -3z"/>
<path d="M12700 4401 c-42 -13 -93 -42 -122 -68 -23 -22 -25 -29 -16 -57 5
-17 12 -37 14 -45 3 -10 14 -4 34 21 32 39 101 72 131 63 10 -4 23 -15 29 -25
8 -16 0 -25 -54 -64 -35 -25 -75 -59 -90 -76 -58 -70 -15 -170 74 -170 47 0
73 11 113 48 21 20 30 23 39 14 21 -21 72 -13 122 18 40 26 46 34 40 53 -13
44 -19 50 -33 33 -26 -31 -38 -16 -65 82 -36 133 -45 151 -77 167 -30 16 -97
18 -139 6z m108 -242 c12 -49 9 -62 -22 -79 -65 -34 -90 29 -35 86 18 19 36
34 40 34 3 0 11 -19 17 -41z"/>
<path d="M9570 4314 c-52 -42 -96 -81 -98 -89 -2 -7 8 -15 22 -19 30 -7 31
-16 11 -106 -29 -131 -14 -188 58 -221 42 -19 151 -27 161 -11 2 4 7 24 11 45
l7 37 -51 0 c-42 0 -53 4 -66 24 -14 22 -14 32 1 115 11 63 21 91 29 87 6 -2
37 -7 68 -11 l56 -7 7 37 c8 45 1 51 -73 60 l-55 7 6 36 c4 21 9 49 12 65 3
15 2 27 -3 27 -4 0 -51 -34 -103 -76z"/>
<path d="M9097 4348 c-9 -7 -19 -33 -23 -57 l-7 -43 33 17 c37 19 108 22 138
6 23 -12 38 -49 25 -61 -4 -4 -48 -13 -98 -19 -103 -13 -134 -30 -152 -85 -11
-30 -10 -43 1 -71 21 -49 65 -69 139 -62 53 5 62 3 81 -18 21 -24 42 -28 118
-26 28 1 38 6 42 21 3 11 9 29 12 40 5 18 3 19 -21 10 -38 -15 -42 8 -16 114
36 152 27 188 -59 225 -56 24 -185 29 -213 9z m147 -235 c-18 -74 -48 -98 -93
-73 -42 22 -19 72 39 88 57 16 61 15 54 -15z"/>
<path d="M11060 4249 c0 -102 -1 -111 -17 -104 -10 4 -50 9 -88 12 -92 7 -142
-16 -181 -83 -22 -38 -27 -58 -27 -112 1 -77 10 -105 49 -151 49 -58 128 -77
189 -45 19 10 31 11 33 5 2 -6 30 -11 63 -11 l59 0 0 300 0 300 -40 0 -40 0 0
-111z m-65 -181 c24 -11 25 -14 25 -101 0 -106 -12 -127 -70 -127 -53 0 -82
35 -88 103 -8 103 53 161 133 125z"/>
<path d="M9890 4208 c-45 -12 -47 -14 -53 -71 l-5 -47 36 22 c49 30 137 32
158 3 26 -35 13 -47 -69 -66 -102 -24 -135 -43 -153 -84 -21 -52 -17 -74 20
-111 30 -30 40 -34 85 -34 27 0 62 5 76 12 22 10 28 9 40 -9 18 -26 68 -35
119 -23 42 9 56 23 56 57 0 18 -5 21 -27 20 -26 -2 -28 0 -27 38 0 22 4 81 9
132 l8 92 -30 29 c-48 48 -154 66 -243 40z m134 -250 c-8 -51 -28 -70 -69 -66
-24 2 -31 8 -33 28 -3 35 9 49 54 65 55 20 55 20 48 -27z"/>
<path d="M10288 4174 c-3 -5 -8 -76 -12 -159 -4 -82 -9 -169 -13 -192 l-5 -43
61 0 c33 0 61 1 62 3 0 1 4 58 9 127 8 122 9 125 39 152 39 35 75 36 96 4 14
-20 15 -44 8 -160 l-8 -135 52 -7 c28 -3 56 -4 61 0 5 3 12 70 16 150 8 165
-1 202 -56 236 -43 26 -113 26 -156 0 -41 -25 -46 -25 -39 0 4 15 0 20 -16 20
-12 0 -38 3 -58 6 -20 4 -39 2 -41 -2z"/>
<path d="M11328 4166 c-64 -23 -91 -45 -84 -69 3 -12 6 -35 6 -51 l0 -28 35
31 c48 42 109 58 141 36 43 -28 30 -47 -62 -89 -102 -47 -128 -77 -120 -141 7
-58 42 -85 109 -85 35 0 63 7 86 21 30 18 35 19 50 5 24 -22 77 -20 130 4 37
17 42 23 37 43 -3 12 -6 29 -6 37 0 11 -3 11 -12 2 -7 -7 -20 -12 -29 -12 -18
0 -19 5 -35 174 -7 77 -21 107 -60 124 -33 16 -140 14 -186 -2z m124 -297
c-29 -28 -57 -31 -77 -9 -25 27 -8 63 42 89 l38 19 7 -41 c6 -33 4 -45 -10
-58z"/>
<path d="M11722 3918 c-7 -7 -12 -29 -12 -49 0 -28 6 -43 25 -57 29 -23 31
-46 9 -102 -20 -49 -15 -56 23 -37 59 31 93 87 93 153 0 41 -22 89 -45 98 -27
10 -80 7 -93 -6z"/>
</g>
</svg>
